<?xml version="1.0" encoding="UTF-8"?>
<svg viewBox="0 0 640 480" xmlns="http://www.w3.org/2000/svg" xmlns:xlink="http://www.w3.org/1999/xlink">
 <defs>
  <linearGradient id="n" x1="-1.1694" x2="-.55565" y1="1.2138" y2="1.2138" gradientTransform="matrix(1.3344 0 0 1.3344 154.13 -331.6)" xlink:href="#b"/>
  <linearGradient id="o" x1="-7.1609" x2="-6.4065" y1="2.6518" y2="2.6518" gradientTransform="matrix(-1.2753 -.25908 -.25908 1.2753 -136.47 -442.18)" xlink:href="#b"/>
  <linearGradient id="b">
   <stop stop-opacity=".678" offset="0"/>
   <stop stop-opacity=".329" offset=".57"/>
   <stop stop-opacity="0" offset="1"/>
  </linearGradient>
  <linearGradient id="a">
   <stop stop-color="#1f1f1f" offset="0"/>
   <stop stop-opacity="0" offset="1"/>
  </linearGradient>
  <radialGradient id="w" cx="-212.04" cy="682.97" r="13.625" gradientTransform="matrix(-1.9677 -.19403 -.55584 5.6368 19.594 -3763.4)" gradientUnits="userSpaceOnUse" xlink:href="#a"/>
  <radialGradient id="u" cx="-292.55" cy="752.59" r="68.699" gradientTransform="matrix(-.71116 .28867 .75067 1.8494 -631.58 -1070.4)" gradientUnits="userSpaceOnUse" xlink:href="#a"/>
  <radialGradient id="v" cx="-410.96" cy="793.06" r="53.832" gradientTransform="matrix(-.68073 .30043 .71816 1.6272 -593.27 -862.74)" gradientUnits="userSpaceOnUse" xlink:href="#a"/>
  <radialGradient id="s" cx="-180.59" cy="712.64" r="19.039" gradientTransform="matrix(-.28172 .20402 -1.3436 -1.8552 1878.8 1751.4)" gradientUnits="userSpaceOnUse" xlink:href="#a"/>
  <radialGradient id="p" cx="-292.55" cy="752.59" r="68.699" gradientTransform="matrix(-.336 .072539 -.18864 -.87377 1044.8 1008.2)" gradientUnits="userSpaceOnUse" xlink:href="#a"/>
  <radialGradient id="t" cx="-324.67" cy="923.95" r="88.203" gradientTransform="matrix(-.024843 .84478 -.35504 -.010441 1261.9 529.58)" gradientUnits="userSpaceOnUse" xlink:href="#a"/>
  <radialGradient id="q" cx="-410.96" cy="793.06" r="53.832" gradientTransform="matrix(-.32771 .06051 -.14464 -.78336 1006.6 921.72)" gradientUnits="userSpaceOnUse" xlink:href="#a"/>
  <radialGradient id="x" cx="-180.59" cy="712.64" r="19.039" gradientTransform="matrix(-.77632 -.022182 -.14608 5.1124 -27.114 -3490.3)" gradientUnits="userSpaceOnUse" xlink:href="#a"/>
  <radialGradient id="r" cx="-212.04" cy="682.97" r="13.625" gradientTransform="matrix(-.67927 .5681 -1.6275 -1.9459 1965 1840.6)" gradientUnits="userSpaceOnUse" xlink:href="#a"/>
 </defs>
 <path d="m311.75 568.16c-1.1-0.26208-8.75-2.0494-17-3.9718-33.656-7.8418-64.91-18.712-102.63-35.697l-5.6344-2.5367-1.701-9.3137c-4.5825-25.091-11.833-50.009-19.069-65.535-8.8114-18.906-19.801-32.842-37.961-48.143-4.95-4.1704-15.3-13.518-23-20.771-15.162-14.283-20.4-18.668-33.615-28.135-13.802-9.8876-23.135-21.231-27.436-33.348-0.85556-2.4103-3.8146-11.807-6.5757-20.882-5.159-16.956-11.335-31.45-16.762-39.338-1.813-2.6351-7.8543-8.0828-14.664-13.223-15.717-11.864-22.745-18.929-24.784-24.913-1.85-5.4294-2.7425-14.003-5.7726-55.455-2.4822-33.956-2.2128-51.776 1.0745-71.071 1.1713-6.875 2.2207-17.225 2.332-23l0.2024-10.5 4.4619-2.25c2.454-1.2375 5.8357-2.25 7.5148-2.25 3.5103 0 9.8334 3.0876 13.637 6.6589l2.6137 2.4541 0.7398-3.3065c0.40689-1.8185 1.0509-8.3766 1.4311-14.574 0.85241-13.893 1.6208-14.983 11.192-15.877 5.4635-0.51013 7.1737-0.26184 10.745 1.5601 5.6169 2.8655 11.007 8.4144 14.531 14.96 6.2562 11.618 7.0685 22.446 3.1229 41.624-1.661 8.0732-2.4687 15.272-2.4683 22 7.4e-4 14.966 1.6441 22.004 3.444 14.75 0.37526-1.5124 4.5156-10.625 9.2007-20.25 8.59-17.647 10.587-22.849 11.865-30.91 0.96832-6.1085 4.1553-9.0958 9.6737-9.0676 11.552 0.059082 20.237 9.8514 22.994 25.927 1.5671 9.1388 0.16493 17.682-5.157 31.42-6.1198 15.798-7.0419 20.618-7.0346 36.775 0.003563 7.8956-0.51349 21.16-1.149 29.477-1.1357 14.864-1.1158 15.217 1.1725 20.738 1.2804 3.089 2.531 5.4134 2.7792 5.1652 0.24824-0.24823 2.7399 1.5507 5.5371 3.9975 2.7971 2.4469 11.252 7.6116 18.789 11.477 15.748 8.0774 24.084 13.977 28.483 20.158 1.7664 2.4821 4.9214 9.9127 7.3636 17.343 4.7348 14.405 10.065 26.793 12.059 28.025 0.97307 0.60138 1.1037 0.32251 0.52045-1.1111-12.39-30.455-17.561-49.503-17.561-64.696-2.75e-4 -11.528 3.148-17.681 11.146-21.782 2.0051-1.0284 4.2771-2.5012 5.0489-3.273 2.9364-2.9365 8.526-4.9812 14.854-5.434 5.6286-0.40277 7.3703-0.088806 12.21 2.2009 13.706 6.4838 21.827 21.02 37.305 66.771 8.2309 24.329 12.46 34.341 17.045 40.354 1.281 1.6798 5.8304 5.0158 10.11 7.4134 27.838 15.597 39.831 34.168 41.907 64.894 0.51205 7.5782 1.3493 11.348 3.9172 17.638 7.3666 18.045 17.048 53.698 21.453 79 6.0435 34.719 4.6747 67.166-3.5437 84-1.9881 4.0724-4.1198 4.985-8.9528 3.8329zm29.666-32.608l-5.1887-30.224 1.0208-14c2.4547-33.668 8.3646-69.121 15.502-93 2.8259-9.4537 3.3588-12.968 3.791-25 0.56506-15.732 2.0507-22.542 7.2331-33.159 4.5574-9.336 15.059-20.566 25.923-27.721 4.6091-3.0355 9.3589-6.5544 10.555-7.8197 5.4652-5.7813 9.4188-16.826 17.636-49.265 10.775-42.536 18.886-58.623 32.861-65.172 7.9536-3.7274 20.162-2.5508 25.542 2.4616 1.2257 1.1419 3.4761 2.3502 5.0009 2.6851 4.3959 0.96545 9.6874 6.8425 11.423 12.687 3.6382 12.251 0.67035 34.624-8.5792 64.672-1.5989 5.1942-2.7088 9.6423-2.4666 9.8845 1.454 1.454 8.4625-19.408 11.675-34.753 0.6333-3.025 2.0602-7.3 3.1709-9.5 3.3331-6.6019 13.413-15.431 26.797-23.472 15.571-9.3546 24.777-17.599 27.148-24.313 1.6551-4.6865 1.6307-5.3587-0.74683-20.53-1.3519-8.6269-2.9335-21.76-3.5148-29.185-1.2988-16.592-1.8205-18.629-8.4523-33-7.5074-16.269-8.8128-21.364-8.2987-32.394 0.80536-17.28 9.3366-28.606 21.547-28.606 5.4736 0 7.8416 2.0981 9.2936 8.2342 1.7664 7.4644 4.9353 14.275 12.427 26.71 3.5904 5.959 8.2673 14.295 10.393 18.525 4.4531 8.8606 5.1589 8.4042 5.1056-3.3013-0.042297-9.2929-1.7512-19.076-5.8674-33.592-1.8208-6.4208-3.0977-13.269-3.0977-16.614 0-15.541 6.5298-29.538 16.827-36.068l24.736 5.75c-5.339 22.338 9.0877 24.909 26.502 24.494l10.383 48.085 4.0522 104.28-2.3973 4.5c-2.6193 4.9167-10.899 13.487-24.103 24.949-6.9296 6.0156-9.1989 8.7419-12.283 14.756-4.9828 9.7173-8.9828 21.954-12.19 37.294-6.96 33.286-11.236 41.074-32.279 58.791-6.5798 5.54-16.64 15.161-22.356 21.38-5.7158 6.2192-17.402 18.512-25.969 27.318-18.229 18.737-23.078 25.11-30.446 40.01-9.4108 19.032-15.244 41.388-19.111 73.241-1.8036 14.857-1.8441 14.997-4.8427 16.74-21.844 12.695-52.132 27.049-76.524 36.265-12.879 4.8663-43.171 14.894-50.073 16.577l-2.5726 0.6271-5.1886-30.225z"/>
 <path d="m598.95 17.91c-0.12335 0.03479-0.25 0.098989-0.37305 0.13696-0.16211 0.049929-0.33704 0.085258-0.4986 0.14068-0.078247 0.026861-0.15656 0.038092-0.23462 0.066231-0.076904 0.02771-0.1579 0.037291-0.23468 0.066219-4.835 1.8195-9.4178 6.0593-13.675 11.237-9.4306 11.47-6.7598 28.032-1.6304 44.381 1.7421 5.5526 3.134 13.443 3.7647 20.185 4.0148 2.4569 6.0373 5.8018 13.888 4.4407-8.6342 2.4531-11.506 1.7548-13.8-0.53888 0.76965 12.106 0.51337 24.821 0.86456 35.38 0.001038 0.003479 0.006958 0.02533 0.00824 0.029358-0.003174 0.015015-0.030579 0.089539-0.033813 0.10455 0.001282 0.004028 0.007263 0.025879 0.008301 0.029297 0.12299 0.85968 0.23334 1.7113 0.31396 2.5714 2.4352 25.985 26.855 47.812 17.668 64.964-9.3861 17.523-2.9003 26.114-12.428 53.919-11.848 34.577 2.0576 53.876-20.968 77.07 4.8763-3.8778 8.796-7.6832 15.73-18.657 15.912-25.183 7.6538-25.033 18.632-56.62 10.97-31.561 22.437-37.026 27.849-66.599 5.4374-29.708 0.54169-29.198-0.67834-48.859-1.22-19.662-0.8194-15.921-3.2736-30.9-2.4542-14.98-0.79254-12.496-5.4793-29.74-4.6867-17.244-7.7897-24.533-11.948-39.757-3.6383-13.321-1.8568-19.378-2.7443-21.17-0.016235-0.031309-0.044373-0.080389-0.062439-0.10907-0.018433-0.027899-0.07135-0.07538-0.091736-0.10077-0.010437-0.012331-0.034973-0.038641-0.045898-0.05036-0.011169-0.011351-0.03418-0.039671-0.045898-0.050411-0.011902-0.010319-0.033386-0.04059-0.045837-0.05035-0.025452-0.01886-0.085205-0.04682-0.11285-0.063179-0.007019-0.003901-0.030396-0.017271-0.037598-0.021049-0.007324-0.003601-0.03009-0.017521-0.037598-0.021061-0.022888-0.00989-0.050964-0.03351-0.075195-0.04211-4.88e-4 -0.001829-0.005798-0.020569-0.008301-0.029299-0.003906 0.0014-0.055237 0.01544-0.058655 0.016539-0.00354 0.001101-0.024902 0.006901-0.029358 0.008301-0.008789-0.005249-0.036865-0.045231-0.045837-0.050409-0.003601 0.00103-0.054688 0.01519-0.058716 0.016539-0.015686-0.003119-0.051147-0.009649-0.066895-0.01276-0.001831 9.21e-4 -0.049744 0.014221-0.058655 0.016541-0.011597 0.010931-0.038818 0.034611-0.050415 0.0459-0.003418 7.9e-4 -0.054932 0.01556-0.058655 0.016541-0.003662 9.8e-4 -0.025085 0.0072-0.029297 0.008299-0.016663 0.014771-0.055908 0.06916-0.071472 0.0835-0.003601 0.001041-0.024841 0.007261-0.029297 0.008301-0.035828 0.030029-0.10059 0.072571-0.13013 0.10004-0.03009 0.034359-0.067078 0.09222-0.092468 0.12109-1.8563 2.1829-3.928 12.7-4.1738 18.087-0.80597-7.9501-0.39612-14.84 2.4671-19.759-2.6052-0.7937-5.1699-0.7572-7.6772-0.05011zm-55.55 38.571c-5.1055 1.717-9.2892 6.9753-12.787 13.488-6.4392 11.991-1.2774 27.043 6.0563 41.546 2.4908 4.9258 5.0638 12.073 6.7682 18.261 4.0178 1.7413 6.4691 4.5244 13.343 2.0611-7.4274 3.5978-10.131 3.3583-12.584 1.5247-0.66461 16.09 3.2883 44.68 8.2031 54.652 0.003906 0.007996 0.004456 0.021118 0.00824 0.029358 0.46338 1.0529-0.12463 3.4963-1.337 6.9321 4.3343 2.3889 9.0774 4.1939 14.302 5.6852-5.5203-0.35107-10.58-1.3665-15.198-3.2476-4.3689 11.367-13.551 30.378-17.529 45.606-2.6234 7.436 0.72766 14.024 4.0814 20.634-4.5958-3.5012-8.2671-8.0536-8.8302-16.254-3.8062 5.0617-6.9744 10.882-9.121 17.837-1.0878 7.1218-1.3774 13.845 1.2346 19.411-3.4266-4.1104-3.8397-9.8967-5.0155-15.304-2.2028 3.1376-4.365 6.2741-5.8706 12.075-0.84039 10.235 1.9956 19.165 7.3337 28.456-2.1704-2.4204-4.0132-4.8642-5.5476-7.4276-15.358 18.53-29.554 33.65-41.497 42.363 10.854-10.591 24.853-24.936 32.769-38.507-6.5684 0.34863-11.062 5.5751-14.869 11.384-0.27759-5.6762 3.1658-10.134 7.1388-15.884l8.8146-9.834c0.22022-0.18195 0.42139-0.40973 0.55872-0.60101 0.096924-0.1402 0.19348-0.31549 0.25262-0.45129 0.007385-0.014038 0.026855-0.048706 0.042114-0.075195 0.00354-0.006226 0.039185-0.069092 0.042053-0.075195-0.001526-0.004395-0.007202-0.025757-0.00824-0.029358-0.001038-0.003662-0.006714-0.024902-0.008301-0.029297 0.025696-0.096924 0.047302-0.23071 0.063904-0.33472 0.003235-0.015625 0.009827-0.051392 0.012756-0.066895-9.77e-4 -0.003479-0.015137-0.054932-0.016541-0.058716-9.77e-4 -0.003357-0.006958-0.025635-0.008301-0.029297-0.001221-0.039063 0.020752-0.12445 0.017273-0.16321-0.008423-0.035645-0.039978-0.1405-0.049622-0.17596-0.001099-0.00415-0.007202-0.025635-0.008301-0.029358-9.77e-4 -0.003906-0.007263-0.025818-0.00824-0.029297-0.016174-0.026245-0.075806-0.075928-0.091797-0.10077-9.77e-4 -0.00354-0.015564-0.054565-0.016541-0.058655-0.95428-1.9882-5.8854-3.2737-9.0275-1.9174l-29.583 17.816c-4.196 9.0007-5.4268 17.719-5.8002 26.463 1.4945-1.7877 3.146-3.3551 4.9594-4.7561 1.5361-0.83106 2.9944-1.9196 4.5633-2.681 0.16229-0.078796 0.30893-0.15686 0.47378-0.2287 1.8716-0.81634 3.9103-1.1325 6.4604-0.33484-8.327 3.432-13.012 9.1354-16.607 15.548-0.009369 0.016785-0.011688 0.020874-0.021057 0.037598-0.052612 8.5288 0.14062 17.142-1.3824 26.071-2.1063 12.348-8.7666 19.134-12.527 22.598 6.1668-10.442 10.976-29.973 12.218-47.147 1.7805-24.631-2.086-22.424 12.294-48.562 11.157-20.28 15.678-42.762 17.438-66.353 1.5614-20.94-6.1386-21.813-10.394-25.724-2.4739-2.2871-4.6215-4.0151-9.0039-5.3122-7.8849-1.7891-19.386-3.9062-29.328 14.23-13.801 25.174-15.292 40.819-27.145 81.664-11.853 40.844-34.731 24.331-22.818 79.714-9.4649-6.7953-12.16-31.343-11.175-35.447-9.4465 1.5331-6.6726 25.597-0.90353 35.848-5.661-7.2617-9.6196-16.724-9.1521-26.708-3.1255 5.8278-4.0281 28.736-4.6517 47.925-0.14737 4.5359 1.1136 15.38 12.048 29.564-0.008331 0.00769-0.03244 0.029663-0.050385 0.045898-0.017365 0.016113-0.060364 0.073547-0.071442 0.083496-0.011444 0.010864-0.067963 0.043518-0.079712 0.054138-0.00885 0.002502-0.027496 0.007751-0.029327 0.008301-0.012207 0.011475-0.068878 0.044006-0.079712 0.054138-0.004364 0.001465-0.024384 0.006775-0.029327 0.008301-0.021912 0.005676-0.072418 0.020569-0.087982 0.02478-0.004028 0.00116-0.021057 0.005859-0.029327 0.008301-0.003784 0.001221-0.025909 0.007324-0.029327 0.008301-0.015503-0.003052-0.080353-0.001221-0.096283-0.004517-0.00354 9.77e-4 -0.025055 0.006836-0.029327 0.008301-2.8143 0.12512-12.255-8.5728-15.628-21.492-13.338 14.038-5.6714 110.28-5.2204 161.04 40.195-11.348 77.866-27.263 112.64-47.017 4.2996-22.138 10.198-47.586 18.657-78.191 12.869-46.565 32.938-48.451 59.683-78.908 5.998-6.8304 10.714-11.631 14.576-15.228-4.88e-4 -0.001099-0.00592-0.020935-0.00824-0.029297-4.0237 2.8414-8.6902 5.7264-14.023 8.7704 16.019-10.458 21.64-18.436 28.084-26.608 7.7287-9.8029 6.2062-12.151 10.61-43.083 1.7824-12.52 3.9233-22.118 5.8154-29.887 3.0486-12.516 3.1791-28.775 6.5875-38.148 9.8118-26.982 5.3066-30.908-2.241-47.215-5.6534-12.215-6.9424-17.341-8.8024-27.377-2.5581-13.802-2.605-12.582-9.4584-29.028-6.2986-15.115-11.471-19.683-17.75-33.275-5.838-12.636-4.899-18.489-6.312-19.562-0.036621-0.02496-0.11054-0.065128-0.15039-0.084171-0.020325-0.01178-0.083069-0.02282-0.10455-0.033867-0.015503-0.003361-0.089539-0.031681-0.10455-0.033821-0.015808-0.003231-0.051147-0.009701-0.066956-0.012753-0.002502 0.004642-0.047302 0.039791-0.050354 0.045902-0.008423 0.00238-0.024902 0.00708-0.029358 0.00824-0.008789-0.005009-0.028809-0.01606-0.037598-0.021061-0.004028 0.001041-0.055176 0.01556-0.058655 0.016541-0.011963 0.010681-0.038391 0.03516-0.050354 0.045898-0.003845 0.001404-0.055359 0.015263-0.058716 0.016541-0.003174 0.001221-0.025513 0.007141-0.029297 0.008301-0.002869 0.005619-0.010254 0.06226-0.012756 0.066959-0.002686 0.004822-0.047974 0.040833-0.050415 0.04583-0.011841 0.01038-0.038574 0.03516-0.050354 0.045902-0.012024 0.010677-0.059509 0.072689-0.071472 0.0835-1.3756 2.0763-1.3948 12.749-0.64807 17.789-2.1244-7.402-2.9104-13.943-1.1774-18.984-1.9137-0.29339-3.7124-0.12109-5.4142 0.4513zm85.846-16.943c-2.5966 0.90637-5.3895 2.83-8.6263 6.0126-1.0606 1.0428-1.9925 2.2244-2.8371 3.5239l-0.2692 0.3926c5.2634 14.913 13.128 34.444 15.278 58.514 3.4718 38.874 8.1522 58.204 6.3424 70.725-2.1099 14.597-3.126 24.41-13.422 44.225 11.04-9.531 21.493-18.294 24.286-25.03 4.2882-10.343 0.052979-16.039 2.2055-51.32 1.0124-16.594 0.66321-13.432-0.11572-26.218-0.77893-12.787 0.43683-10.58-2.0229-25.458-2.4597-14.879-4.4518-21.277-6.6404-34.415-2.0706-12.429 0.42737-17.209-0.71478-18.354-0.0047-0.004459-0.032776-0.016731-0.037598-0.021061-0.014771-0.012699-0.030029-0.0387-0.045898-0.05035-0.034302-0.022709-0.11114-0.065678-0.15039-0.084229-0.0047-0.002632-0.03241-0.017952-0.037659-0.021061-0.003845 0.001461-0.055176 0.015499-0.058655 0.016541-0.003601 0.001099-0.025269 0.00684-0.029297 0.008301-0.004578-0.002621-0.031921-0.017879-0.037598-0.021061-0.003601 0.001041-0.05426 0.015202-0.058716 0.016548-0.003967 0.00103-0.025818 0.00732-0.029297 0.008301-0.001648 7.9e-4 -0.020325 0.005859-0.029358 0.008301-0.003723 0.001099-0.054443 0.015442-0.058655 0.016541-0.003967 0.001041-0.025879 0.007259-0.029297 0.00824-0.003479 8.51e-4 -0.025574 0.007259-0.029358 0.008301-0.002625 0.0047-0.047485 0.039921-0.050354 0.045898-0.008057 0.002132-0.025635 0.006889-0.029358 0.00824-0.001587 7.32e-4 -4.5111 10.346-5.2271 15.028-0.002625-6.7722 0.95361-12.529 3.7874-16.427-3.8785-1.6273-7.2999-2.4456-11.077-1.2123-0.083435 0.027161-0.15088 0.036919-0.23462 0.066219zm-186.75 166.48c0.037781-0.017639 0.079315-0.016846 0.11731-0.033081 0.005035-0.00177 0.024536-0.007019 0.029327-0.008301 0.013916-0.003113 0.044098-0.012878 0.058655-0.016541 0.005127-0.001648 0.023804-0.006104 0.029327-0.008301 0.032135-0.010437 0.084442-0.024414 0.11734-0.033081 0.003265-9.77e-4 0.021179-0.006042 0.029327-0.008301 0.13754-0.049377 0.29639-0.080139 0.43994-0.12415 7.6821-2.3519 22.371 3.0334 32.022 8.4429-12.328-6.1396-33.067-11.686-36.053-2.0805-1.5183 4.8838-3.6861 10.53-3.7912 16.301-0.2323-6.4076 1.6463-12.639 3.06-17.995 0.49402-1.8716 1.61-3.1877 3.1695-4.0294 0.24628-0.13287 0.50699-0.2843 0.77161-0.40772zm-7.0115 23.068c0.001129-0.009033 0.027771 6.71e-4 0.029358-0.00824-0.002777 0.018494-0.019928 0.019775-0.021057 0.037598 3.97e-4 -0.004578-0.00885-0.024841-0.008301-0.029358zm107.43-28.226c-1.6437 1.7723-3.3452 3.588-5.1623 5.3834-10.765 10.636-24.429 14.084-36.251 25.271-6.324 5.9844-7.6268 9.332-9.8836 12.891-0.002441 0.004456-0.005371 0.053284-0.012756 0.066895-1.248 7.0486-3.264 14.436-5.6306 23.248-4.7597 17.724-6.0134 16.044-11.582 25.276l19.764-10.644c3.7519-1.7117 8.0142-1.1604 9.256 1.1561l1.0621 1.6319c-0.20618-1.5809-0.32776-2.8598-0.26984-4.5471 0.29681-8.6442 11.144-20.656 11.144-20.656 3.426-8.1957 7.4122-15.264 12.672-19.504 1.0089-1.661 10.373-26.961 14.893-39.574zm-105.68 31.944c0.001587-9.77e-4 0.027618-0.007446 0.029327-0.008301 0.013184-0.003723 0.044891-0.013062 0.058655-0.016541 0.003815-0.001465 0.024933-0.006775 0.029327-0.00824 0.029114-0.008789 0.061737-0.017822 0.087982-0.024841 0.047394-0.012085 0.13223-0.036316 0.176-0.049683 11.03-3.3569 32.938 4.6869 36.841 9.5847 0.002869 0.003601 0.00528 0.025208 0.008301 0.029297 0.018616 0.026978 0.0383 0.057373 0.054138 0.079712 0.19199 0.28186 0.3183 0.63123 0.43637 0.98517 0.002289-9.77e-4 0.056396-0.015686 0.058655-0.016541 3.1719-3.6573 5.4837-8.2602 7.1206-11.572 1.2626-2.5549 2.9424-6.6769 2.6099-9.603 0.8175 3.1861-0.79358 7.9841-2.0825 10.911-2.7941 6.3444-7.5908 17.122-16.164 18.241-9.3258 1.2178-20.635-2.3137-26.558-9.9532-0.047211-0.060852-0.099396-0.11908-0.1459-0.18048 0.053406 0.062622 0.091583 0.11859 0.1459 0.18048 5.7422 6.5466 16.607 9.1868 25.636 7.8068 3.5051-0.53564 6.4218-2.5598 8.8581-5.1914-6.0616-5.1929-26.184-12.331-38.266-10.259-0.03302-0.14178-0.065155-0.30597-0.094818-0.44824 0.32458-0.1474 0.67288-0.29334 1.0228-0.41528 0.01062-0.003662 0.044067-0.013062 0.058685-0.016602 0.003296-9.16e-4 0.026459-0.007263 0.029327-0.00824 0.00296-0.002258 0.026611-0.005615 0.029327-0.008301 0.002502-0.002991 0.018494-0.034729 0.021057-0.037598zm-15.491 60.009c8.1442 6.2172 27.528 10.467 35.096 4.1873 2.5456-2.1124 4.3771-2.9922 5.3221-3.0218 0.032257-3.05e-4 0.095428-0.005493 0.12558-0.003784 0.015686 0.00293 0.080841 0.001343 0.096283 0.004517 0.008911-0.00238 0.027435-0.007507 0.029327-0.008301 0.01297 0.002869 0.081177 0.029297 0.10455 0.033813 0.008942 0.005127 0.028687 0.01593 0.037598 0.021057 0.008606 0.004761 0.029205 0.016113 0.037598 0.021057 0.006775 0.003601 0.068695 0.03833 0.075226 0.042114 0.010254 0.005737 0.030853 0.017273 0.037598 0.021057 0.016174 0.017151 0.043335 0.067993 0.054169 0.079712 0.010986 0.011292 0.064789 0.030334 0.075195 0.042114 9.46e-4 0.00415 0.015656 0.055176 0.016571 0.058655 0.001007 0.004028 0.007355 0.025879 0.00827 0.029358 0.002167 0.008057 0.00708 0.025757 0.00827 0.029297 0.002136 0.007324 0.014709 0.051208 0.016571 0.058655 0.004089 0.013672 0.012695 0.044922 0.016541 0.058655 0.001312 0.003845 0.015564 0.055237 0.016571 0.058655-0.003082 0.015625-0.038788 0.059448-0.042114 0.075256 0.004333 0.013428 0.020721 0.074341 0.024841 0.087952-0.004364 0.023193-0.002075 0.081421-0.004517 0.096313-0.21851 1.1796-2.1671 3.4938-6.1437 5.9453-10.638 6.5583-27.844-1.6407-35.008-7.9169zm5.5142 10.002c6.9405 3.4421 20.334 5.7134 25.607 2.4317 2.092-1.3018 3.6038-1.728 4.2626-1.6146 0.015106 0.002258 0.051697 0.009521 0.066956 0.012756 0.002045 8.54e-4 0.033112 0.018555 0.037598 0.021057 0.004425 0.002563 0.035614 0.020203 0.037598 0.021057 0.009186 0.005371 0.031586 0.017944 0.037628 0.021057 0.010895 0.011658 0.043976 0.067688 0.054138 0.079712 0.0112 0.011475 0.064789 0.030273 0.075226 0.042114 0.006165 0.020081 0.021118 0.074097 0.024841 0.088013 0.00119 0.003601 0.007324 0.02594 0.00827 0.029297-0.006775 0.048584-0.029755 0.16418-0.03833 0.20081-0.20346 0.70252-1.6628 2.003-4.5737 3.3173-7.4155 3.3481-19.409-0.94446-25.6-4.6503zm80.149-7.9568c-0.005859 0.010193-0.018677 0.03302-0.021057 0.037598-0.007751 0.002136-0.024414 0.006775-0.029358 0.00824-0.022339 0.006226-0.072815 0.021179-0.087952 0.024841-0.04303 0.009827-0.11054 0.028442-0.14667 0.041382-0.003601 9.77e-4 -0.054138 0.015503-0.058655 0.016541-0.002441 0.004639-0.01825 0.032043-0.021057 0.037659-5.1256 2.8494-8.1563 6.235-10.167 9.8672 3.9799-4.2695 7.8358-6.1362 11.602-7.1373-0.40399-0.95636-0.69757-1.9278-1.012-2.9127-0.003906 8.54e-4 -0.055237 0.015686-0.058655 0.016602z" fill="#fff" stroke-linecap="round" stroke-linejoin="round" stroke-width="10"/>
 <g fill-rule="evenodd">
  <path d="m542.93 200.86c-1.6438 1.7723-3.3396 3.5896-5.1567 5.385-10.765 10.636-24.442 14.09-36.263 25.276-6.324 5.9844-7.6278 9.3299-9.8846 12.888-0.003296 0.00592-0.026001 0.043884-0.028076 0.050171-1.248 7.0486-3.2393 14.446-5.6058 23.259-4.7597 17.724-6.0158 16.052-11.584 25.284l19.77-10.65c3.752-1.7117 7.9994-1.1637 9.2412 1.1528l1.043 2.1987c-0.22809-1.6574-0.32349-3.3513-0.26263-5.1233 0.29681-8.6442 11.161-20.643 11.161-20.643 3.426-8.1957 7.4056-15.265 12.666-19.505 1.0089-1.661 10.384-26.961 14.904-39.574zm-5.7424 8.5504c-3.4683 8.595-10.616 25.805-11.467 27.195-3.4457 2.6636-6.1985 6.8135-8.6182 11.686-0.001648 0.003235-0.02594 0.04718-0.028137 0.050232-0.005798 0.005371-0.033997 0.00531-0.039124 0.011047-0.002197 0.00293 0.012634 0.035889 0.011047 0.039124-13.328 16.958-25.532 27.624-20.266 1.7049-0.002258-0.003357-0.009521-0.036011-0.011047-0.039124 0.056824-0.18945 0.12457-0.37036 0.18054-0.55804 4.27e-4 -0.003723-0.01123-0.0354-0.011047-0.039124 0-0.007751-0.011414-0.031555-0.011047-0.039124 4.27e-4 -0.003784 0.038391-0.007507 0.039185-0.011047 0.036133-0.12158 0.071533-0.24756 0.1073-0.36835 0.9447-3.1911 1.7384-6.1712 2.3532-9.0307 1.6913-2.4634 2.7084-4.7324 7.3691-8.9249 8.7125-7.8372 18.644-10.498 26.587-17.94 1.3408-1.2562 2.5894-2.4987 3.8051-3.7359z"/>
  <path d="m537.18 209.43c-1.2157 1.2371-2.4765 2.4658-3.8173 3.722-7.9425 7.4419-17.856 10.081-26.568 17.918-4.6608 4.1925-5.66 6.494-7.3513 8.9574-0.61481 2.8594-1.4356 5.8384-2.3803 9.0294-0.035828 0.12079-0.078491 0.23541-0.11462 0.35693-0.006104 0.02887 6.1e-5 0.062012-0.005981 0.090698-0.055969 0.18774-0.10718 0.36487-0.16406 0.55426-0.002197 0.010742 0.017944 0.026794 0.015747 0.037476-5.2652 25.919 6.9059 15.245 20.234-1.7123 0.012695-0.025635 0.046509-0.043396 0.059204-0.069031 2.4197-4.8724 5.1796-9.035 8.6253-11.699 0.75751-1.1489 7.9715-18.524 11.467-27.186z" fill="url(#n)"/>
  <path d="m451.15 193.22c-0.39444 0.11517-0.77145 0.25806-1.1566 0.38971-24.602 8.4134-31.89 60.326-39.263 86.635-9.4808 33.83-13.579 27.164-30.125 40.357-24.192 19.289-26.043 45.814-24.918 68.907-9.8021 24.806-19.149 85.795-19.085 117.29l9.782 56.993c2.3546-0.62854 4.7237-1.3014 7.0768-1.9654 3.8141-1.0763 7.6077-2.1792 11.376-3.337-4.8322-17.546-22.547-140.4-6.0972-157.72 3.6204 13.866 14.209 22.876 16.119 21.322 0.036957-0.032959 0.09201-0.087952 0.12183-0.1294-10.934-14.184-12.158-25.007-12.01-29.543 0.63339-19.491 1.4717-42.766 4.7194-48.134-0.54825 10.465 3.6083 20.412 9.6884 27.824-6.1632-9.5881-9.5355-35.181 0.23254-36.766-0.98465 4.1041 1.7603 28.606 11.225 35.401-11.913-55.383 10.915-38.824 22.768-79.668s13.344-56.49 27.145-81.664c11.92-21.743 26.074-14.342 33.57-13.337-8.2907-4.3704-15.252-4.5893-21.168-2.861z"/>
  <path d="m445.56 388.28c6.1669-10.442 10.959-29.988 12.2-47.162 1.7806-24.631-2.0892-22.396 12.29-48.534 11.157-20.28 15.7-42.793 17.46-66.384 1.7591-23.591-8.2687-21.683-11.849-27.38 6.4848 1.4819 12.978 7.3173 14.012 17.462 1.916 18.8-1.9575 33.015-8.0042 54.739-6.0468 21.724-6.8073 16.764-14.757 31.557-11.544 21.482-5.1254 41.329-8.838 63.096-2.1063 12.349-8.7533 19.144-12.514 22.608z"/>
  <path d="m418.92 289.77c3.6013 5.9787 25.301 18.668 37.826 10.947 8.7009-5.3641 7.685-10.025 0.10724-3.7366-8.7295 7.2438-33.135 0.4118-37.933-7.2103z"/>
  <path d="m423.69 300.16c2.893 3.5936 19.792 11.542 29.201 7.2938 6.5369-2.9514 5.6527-5.7117-0.003357-2.192-6.5158 4.0546-25.351-0.51562-29.198-5.1018z"/>
  <path d="m436.09 233.3c0.029663 0.14227 0.065338 0.30212 0.098358 0.44391 12.129-2.0798 32.316 5.0859 38.291 10.284 0.18591-0.20007 0.35294-0.41437 0.53299-0.62103-0.001343-0.00293-0.014465-0.034546-0.015747-0.037537-0.13492-0.4046-0.30289-0.78589-0.54776-1.0932-4.0925-5.136-27.972-13.693-38.359-8.9761z"/>
  <path d="m441.74 206.45c-1.5595 0.84168-2.6685 2.1489-3.1625 4.0204-1.7633 6.6802-4.3503 14.658-2.5343 22.725-1.4952-7.3913 1.3101-14.819 3.2434-21.038 3.28-10.551 27.977-2.7688 39.419 3.9426-9.8529-6.359-29.124-13.882-36.966-9.6501zm-3.7844 32.03c5.0518 9.6682 18.067 14.213 28.517 12.849 8.5726-1.1194 13.406-11.891 16.2-18.236 1.399-3.1767 3.2261-8.5942 1.8651-11.724 0.82538 2.9272-1.0275 7.6011-2.4167 10.412-2.9509 5.9714-8.0495 16.112-16.547 17.411-10.248 1.5663-22.806-2.0951-27.619-10.712z"/>
  <path d="m594.68 15.443c-0.44641 0.15179-0.89221 0.34124-1.3371 0.53564-8.5917 3.7544-16.548 15.081-18.546 27.305-2.8402 17.376 2.2792 23.653 5.6706 37.824 2.1501 8.9837 3.5928 23.475 1.9574 30.164-0.30823 1.2604-0.60992 2.4724-0.89526 3.6726 2.6148 6.1858 4.6338 12.57 5.5101 18.964-0.37671-10.656-0.10602-23.614-0.88788-35.912 2.3455 2.3448 5.331 3.0472 14.424 0.39435-8.3254 1.6246-10.393-1.7515-14.504-4.2668-0.63074-6.742-1.9933-14.641-3.7354-20.194-5.1293-16.348-7.8295-32.902 1.6011-44.372 6.8295-8.3064 14.565-14.047 22.702-11.568-2.8633 4.919-3.2814 11.78-2.4754 19.73 0.24579-5.3872 2.2882-15.896 4.1445-18.079 0.025391-0.02887 0.070679-0.05732 0.10077-0.09174 0.0047-0.00507 0.016846-0.03351 0.021057-0.037601 0.004211-0.003899 0.024231-0.004089 0.029358-0.008299 0.034607-0.02673 0.075562-0.07263 0.10077-0.09174 0.003113-0.002251 0.025574-0.00506 0.029297-0.008301 0.024902-0.022949 0.052673-0.07251 0.071472-0.08349 0.00415-0.00226 0.022827-0.00543 0.029297-0.008299 0.014587-0.005741 0.050354-0.012821 0.058655-0.016541 0.012451-0.005011 0.039185-0.00849 0.058655-0.01655 0.002075-5.4e-4 0.026123-0.00683 0.029358-0.008301 0.003235-0.001339 0.027283-0.007809 0.029297-0.00824 0.02002 0.001291 0.051025 0.012032 0.066956 0.01276 0.024597-2.4e-4 0.071838 0.001101 0.096252 0.00452 0.003113 6.1e-4 0.025818-0.008551 0.029358-0.008301 0.007751 1.2e-4 0.021057-0.008179 0.029297-0.00824 0.007751 5.4e-4 0.031555 0.018921 0.037659 0.02099 0.032288 0.01148 0.074585 0.01996 0.10449 0.03388 0.007385 0.003599 0.030457 0.017269 0.037659 0.021049 0.028198 0.01569 0.086792 0.044861 0.11279 0.06311 0.025452 0.018921 0.06012 0.050051 0.083496 0.07148 0.011414 0.01104 0.034973 0.038691 0.045898 0.05035 0.042664 0.0481 0.11072 0.12189 0.14594 0.18048 0.97376 1.7015-0.88867 7.7502 2.7984 21.25 4.1581 15.224 7.24 22.551 11.927 39.795 4.6868 17.244 3.0168 14.731 5.471 29.71 2.4542 14.98 2.0535 11.239 3.2736 30.9 1.22 19.662 6.1451 19.143 0.7077 48.851-5.4128 29.573-16.88 35.039-27.849 66.599-10.979 31.587-2.721 31.437-18.632 56.62-6.9335 10.974-10.92 14.766-15.796 18.644-0.023682 0.02179-0.047668 0.061707-0.071411 0.083496-0.046936 0.037109-0.083008 0.062744-0.13013 0.10004-3.2661 3.2624-7.2812 6.648-12.185 10.12-0.043396 0.03064-0.086487 0.069153-0.13007 0.10004-3.8616 3.5974-8.5482 8.3892-14.546 15.22-26.745 30.456-46.814 32.343-59.683 78.908-8.4558 30.595-14.331 56.052-18.627 78.183 2.9602-1.6821 5.8982-3.3788 8.816-5.1162 2.6013-24.262 5.9399-50.8 14.459-73.429 10.565-28.063 24.499-42.21 32.642-49.617 21.756-19.791 27.368-33.002 52.444-52.831 37.821-29.905 19.912-56.516 45.197-100.06 15.959-27.482 16.936-38.002 19.398-55.031 1.8099-12.521-2.8788-31.88-6.3506-70.754-3.2193-36.047-19.228-61.928-20.169-77.305-0.80322-13.122 0.43689-15.643-13.147-15.954-1.5854-0.03632-3.1971 0.20819-4.7914 0.75048v1e-5z"/>
  <path d="m627.02 38.436c-3.5204 1.7549-6.9736 5.0272-9.7974 9.0152 0.18658 0.53577 0.35626 1.0733 0.54938 1.6218 0.8446-1.2996 1.7781-2.4885 2.8388-3.5314 8.0695-7.9342 13.311-7.6262 19.93-4.849-2.8475 3.9163-3.7952 9.6863-3.7833 16.501 0.66107-4.6277 3.4471-13.91 5.2048-15.113 0.015259-0.00988 0.059814-0.02282 0.074951-0.03149 0.015015-0.00806 0.06012-0.024841 0.074951-0.031551 0.007385-0.003059 0.030151-0.013 0.037537-0.015808 0.007263-0.002319 0.030212-0.013611 0.037476-0.01569 0.014404-0.00354 0.06073-0.029362 0.074951-0.031551 0.02124-0.002201 0.069946 0.005119 0.090759 0.005981 0.020508 0.002869 0.070679-6.1e-5 0.090759 0.005978 0.013306 0.004761 0.040161 0.01556 0.053223 0.021732 0.039246 0.01849 0.087952 0.058228 0.12225 0.080929 1.3535 0.9978-1.3084 5.6798 0.81189 18.407 2.1886 13.138 4.168 19.568 6.6277 34.446 2.4597 14.879 1.2657 12.646 2.0447 25.432 0.77893 12.787 1.1293 9.6043 0.11688 26.199-2.1525 35.281 2.0942 41.001-2.1939 51.345-2.7925 6.7358-13.244 15.5-24.284 25.03-1.66 3.197-3.5822 6.6309-5.7701 10.41 3.5844-3.47 7.1386-6.5978 10.638-9.3244 6.761-5.2681 18.198-16.593 20.879-21.482 5.7078-10.41 2.369-25.453 3.2703-84.044 0.46985-30.539-10.095-53.693-10.302-66.693-0.21051-13.243 1.3873-11.559-9.6555-14.469-2.4769-0.65271-5.1438-0.2055-7.7827 1.11z"/>
  <path d="m538.24 55.067c-7.7895 3.891-13.78 16.428-13.46 28.951 0.42218 16.57 6.0573 21.719 11.476 34.437 3.4356 8.063 4.9041 13.22 4.9418 19.627 0.093445 15.89 6.1446 49.754 6.4382 51.73 0.001953 0.004272 0.014343 0.034058 0.015747 0.037476-0.39508 2.1314-16.408 48.3-17.635 50.292-5.3274 4.4559-9.3561 12.036-12.838 20.881 0 0-11 12.741-11.32 22.184-0.065552 1.9358 0.022339 3.8097 0.24921 5.6301l-1.0401-2.4742c-1.2502-2.576-5.5425-3.2872-9.3396-1.5441l-27.042 14.588c-0.54761 0.95001-1.1253 1.9885-1.7575 3.1651-0.5321 0.99017-1.0306 1.9804-1.4891 2.964l29.568-17.812c3.1422-1.3563 8.105-0.061584 9.0593 1.9266 0.02179 0.047729 0.056091 0.12994 0.078796 0.18744 0.003235 0.008972 0.013184 0.029358 0.015747 0.037476 0.008118 0.03833 0.019653 0.12714 0.025513 0.16577 0.007996 0.044128 0.021606 0.12109 0.025574 0.16571 0.010193 0.15643-0.008911 0.34582-0.051575 0.5069-0.003601 0.012634-0.017822 0.040588-0.021729 0.053284-0.1272 0.3819-0.39282 0.81268-0.86273 1.2009l-8.7939 9.8285c-3.973 5.7501-7.4476 10.219-7.1699 15.895 3.807-5.8089 8.308-11.066 14.876-11.415-7.9156 13.571-21.902 27.97-32.756 38.562 11.942-8.7129 26.108-23.87 41.466-42.4 1.5751 2.6314 3.4833 5.1672 5.73 7.6494-5.4194-9.3709-8.3481-18.337-7.501-28.653 1.5056-5.8007 3.6965-8.9593 5.8993-12.097 1.2222 5.6206 1.4945 11.772 5.3149 15.897-2.8867-5.6634-2.6495-12.655-1.527-20.003 2.1467-6.9551 5.2784-12.785 9.0845-17.847 0.56311 8.2006 4.2302 12.772 8.826 16.274-3.3537-6.6099-6.7144-13.21-4.091-20.646 3.9782-15.228 13.212-34.226 17.581-45.593 4.6176 1.8812 9.6495 2.8889 15.17 3.24-5.2249-1.4914-9.964-3.2908-14.298-5.6797 1.2315-3.4905 1.8034-5.9612 1.2981-6.9864-4.9147-9.9724-8.845-38.525-8.1803-54.615 2.4703 1.8462 5.1917 2.0719 12.736-1.6042-6.9987 2.5664-9.4522-0.2453-13.502-2.0002-1.7045-6.188-4.2548-13.325-6.7457-18.251-7.3337-14.503-12.526-29.564-6.087-41.555 4.6632-8.6837 10.577-15.102 18.231-13.928-1.733 5.0409-0.94794 11.558 1.1765 18.96-0.74676-5.0399-0.73401-15.707 0.6416-17.783 0.010315-0.01202 0.048828-0.057308 0.059204-0.06897 0.012573-0.015629 0.046448-0.05481 0.059204-0.069088 0.012939-0.013432 0.041565-0.053841 0.059265-0.068974 0.008301-0.00684 0.030823-0.010437 0.037476-0.015747 0.003296-0.001343 0.03363-0.0144 0.037476-0.015812 0.010193-0.012569 0.04895-0.056698 0.059204-0.06897 0.007019-0.003109 0.030457-0.013 0.037537-0.015739 0.009521 0.00415 0.043701 0.017448 0.053223 0.021721 0.003296-0.001461 0.033691-0.013969 0.037476-0.0158 0.003296-0.001411 0.033752-0.013859 0.037476-0.01569 0.015564 5.49e-4 0.075073 0.004459 0.090759 0.00592 1.9634 0.3927 0.37067 6.1106 6.6502 19.703s11.487 18.17 17.786 33.285c6.8535 16.447 6.9055 15.217 9.4636 29.019 1.86 10.036 3.1168 15.155 8.7702 27.37 7.5476 16.307 12.063 20.244 2.2508 47.226-3.4084 9.373-3.5444 25.635-6.5931 38.151-1.8922 7.7686-4.0642 17.332-5.8466 29.852-4.4034 30.933-2.8718 33.297-10.6 43.1-6.7008 8.4992-12.54 16.729-30.081 27.82 61.112-34.123 34.437-53.35 49.533-97.404 9.5279-27.806 3.0196-36.394 12.406-53.917 9.1874-17.152-15.2-38.949-17.635-64.934-2.5792-27.522-27.575-55.05-31.078-69.209-2.9914-12.09-2.1971-14.593-14.328-12.99-1.1465 0.15155-2.29 0.46668-3.3817 0.98041-0.092834 0.043701-0.20752 0.079952-0.29993 0.12604zm-31.209 239.95c0.12457-0.069214 0.28534-0.10461 0.41242-0.17334 0.31439 0.98492 0.6438 1.9559 1.0477 2.9122-3.796 1.0092-7.6887 2.8716-11.702 7.2131 2.0096-3.6735 5.0657-7.0745 10.242-9.952zm-37.868 29.55c-1.5688 0.76148-3.0321 1.8392-4.5682 2.6702-1.8224 1.408-3.4992 2.9938-4.9994 4.7926 0.002533 0.004028 0.01413 0.03418 0.015747 0.037476-0.10602 2.5053-0.13284 5.0052-0.14841 7.5176 3.599-6.4328 8.2977-12.159 16.646-15.6-2.55-0.79767-4.5871-0.43933-6.4586 0.37695-0.16482 0.071899-0.32504 0.1261-0.48737 0.2049z"/>
 </g>
 <g stroke-linecap="round" stroke-linejoin="round">
  <path d="m533.58 65.028c-1.042 1.5202-2.0218 3.1871-2.9599 4.934-6.4393 11.991-1.2682 27.055 6.0654 41.558 2.4908 4.9258 5.0512 12.061 6.7557 18.249 4.0178 1.7413 6.47 4.5289 13.344 2.0656-7.4274 3.5978-10.132 3.3568-12.585 1.5231-0.66467 16.09 3.2811 44.675 8.1959 54.647 0.50525 1.0252-0.098206 3.4768-1.3298 6.9671 4.3342 2.389 9.0961 4.186 14.321 5.6774-5.5203-0.35107-10.577-1.3524-15.195-3.2335-4.3689 11.367-13.576 30.376-17.554 45.604-2.6234 7.436 0.74072 14.038 4.0945 20.648-4.5958-3.5013-8.2547-8.0724-8.8178-16.273-3.8062 5.0617-6.9776 10.874-9.1242 17.829-1.105 7.2344-1.364 14.108 1.3827 19.723-3.6166-4.1208-3.968-10.1-5.1666-15.613-2.2028 3.1376-4.3768 6.2965-5.8824 12.097-0.84039 10.235 2.01 19.143 7.3482 28.435-2.1704-2.4203-4.0275-4.8674-5.562-7.4308-15.358 18.53-29.549 33.674-41.492 42.386 10.854-10.591 24.86-24.961 32.776-38.532-6.5684 0.34869-11.067 5.5718-14.874 11.381-0.27765-5.6761 3.1674-10.124 7.1403-15.875l8.8021-9.8364c0.22028-0.18201 0.4176-0.38794 0.55493-0.57916 0.096985-0.14026 0.19373-0.31592 0.25287-0.45166 0.009827-0.018799 0.043762-0.081238 0.056152-0.1004 0.00354-0.006226 0.025208-0.044006 0.028076-0.050171-0.001526-0.004456-0.01001-0.035522-0.010986-0.039124-0.001038-0.003662-0.009521-0.034729-0.011047-0.039124 0.025635-0.096924 0.062622-0.21417 0.079224-0.31818 0.002441-0.018799 0.015808-0.070862 0.017029-0.089294 2.44e-4 -0.009155-0.010864-0.030212-0.011047-0.039185-9.77e-4 -0.003357-0.009766-0.035461-0.011047-0.039124-0.001221-0.039063-0.001587-0.12878-0.005066-0.1676-0.008423-0.035645-0.034485-0.12103-0.044128-0.15656-0.001099-0.00415-0.01001-0.0354-0.011047-0.039124-0.002869-0.007202-0.007446-0.031372-0.011047-0.039124-0.016418-0.032532-0.056091-0.076294-0.072266-0.10638-0.00354-0.006897-0.008362-0.033142-0.011047-0.039124-0.95428-1.9882-5.8954-3.285-9.0376-1.9286l-29.58 17.813c-4.196 9.0007-5.4217 17.738-5.7951 26.482 1.4945-1.7877 3.1347-3.3758 4.948-4.7768 1.5361-0.83106 2.9981-1.9217 4.567-2.6832 0.16229-0.078735 0.32187-0.14996 0.48672-0.2218 1.8716-0.81634 3.903-1.1398 6.453-0.34216-8.3269 3.432-13.018 9.1355-16.613 15.548-0.009369 0.016785-0.018707 0.033447-0.028076 0.050171-0.052612 8.5288 0.13672 17.153-1.3864 26.082-0.88449 5.1854-2.5745 9.3788-4.5103 12.766 57.715-6.353 111.25-84.253 119.84-174.74 5.8414-61.542-10.606-113.23-39.814-138.69z" fill="url(#p)" opacity=".701" stroke-width="6.615"/>
  <g stroke-width="5">
   <path d="m451.69 195.76c-4.3306 1.9979-8.7516 6.0565-12.92 13.661-13.801 25.174-15.304 40.808-27.157 81.653-11.853 40.844-34.717 24.323-22.804 79.706-9.4649-6.7953-12.164-31.32-11.18-35.424-9.6157 1.5605-6.5429 26.41-0.56497 36.33-5.8767-7.3423-9.9432-17.062-9.4356-27.296-3.1857 5.6022-4.0747 28.68-4.7032 48.02-0.084534 2.6022 0.29868 7.2855 2.7046 13.477 30.83-17.019 58.704-52.415 74.792-97.927-5.7411-1.205-11.353-3.7888-14.527-5.9573 3.4344 2.0766 9.3869 3.8791 15.017 4.5512 0.4519-1.3039 0.87073-2.5971 1.3031-3.9172-8.7634-1.6083-17.545-6.795-21.55-10.779 4.4492 4.058 13.905 7.5096 22.407 8.128 1.3933-4.4227 2.6721-8.9166 3.8368-13.506 3.1132-12.266 5.2082-24.434 6.3577-36.317-5.8422-1.772-11.165-5.2266-14.357-10.146 3.1923 4.4603 8.6153 7.3873 14.501 8.7111 0.41275-4.5553 0.70059-9.0459 0.83713-13.504-6.3522-1.5934-12.939-2.3708-18.083-1.4888-0.03302-0.14178-0.052704-0.29932-0.082336-0.44159 0.32458-0.14734 0.67368-0.29364 1.0236-0.41565 4.4491-1.5509 10.877-1.0814 17.17 0.35193 0.1918-8.9039-0.16748-17.615-1.0383-25.99-6.8416-0.82806-12.502 0.2403-13.953 4.9096-1.7572 5.6523-4.2755 12.301-3.5923 19.014-1.0207-7.3678 1.2454-14.591 2.8604-20.709 0.49399-1.8716 1.6153-3.1812 3.1748-4.0229 0.49014-0.26446 1.0143-0.4837 1.5886-0.65955 2.6085-0.79858 6.0236-0.72809 9.787-0.057617-0.37778-3.3694-0.87018-6.6915-1.4144-9.9534z" fill="url(#q)" opacity=".456"/>
   <g fill="#1dffff" fill-opacity=".594">
    <path d="m435.77 231.73c0.01416 0.10962 0.033325 0.21448 0.049255 0.32416-0.019073-0.10846-0.031677-0.21576-0.049255-0.32416z" opacity=".701"/>
    <path d="m438.78 239.84c0.034027 0.04895 0.048767 0.096985 0.083313 0.14557-0.035736-0.05542-0.048126-0.089783-0.083313-0.14557z" opacity=".701"/>
    <path d="m420.19 291.36c0.026917 0.027283 0.033875 0.039978 0.061249 0.0672-0.02002-0.021301-0.041534-0.046021-0.061249-0.0672z" opacity=".701"/>
   </g>
   <path d="m587.74 25.319c-1.2889 1.3043-2.5536 2.735-3.7899 4.2388-9.4307 11.47-6.7651 28.017-1.6357 44.365 1.7421 5.5526 3.1244 13.453 3.7552 20.195 4.0782 2.4958 6.1172 5.871 14.281 4.3365-8.9422 2.5872-11.864 1.8967-14.193-0.43158 0.76965 12.106 0.50574 24.821 0.85693 35.38 0.001038 0.006836 0.010559 0.032227 0.011047 0.039124 4.88e-4 0.028076-0.017456 0.06134-0.017029 0.089355 4.88e-4 0.006897 0.010071 0.032288 0.011047 0.039124 0.12305 0.85968 0.22388 1.7161 0.30444 2.5762 1.2978 13.849 8.8375 26.504 14.205 37.909 7.6132-21.362 10.562-49.511 7.0853-79.707-3.0728-26.69-10.679-50.648-20.874-69.028z" fill="url(#r)" opacity=".456"/>
   <path d="m624.95 41.863c-0.05896 0.041321-0.11438 0.091312-0.17358 0.13354-0.069092 0.049259-0.14337 0.093941-0.21277 0.14454-0.085938 0.062679-0.15436 0.13006-0.24084 0.19476-0.009766 0.00732-0.029297 0.003662-0.039124 0.011051-0.033081 0.02478-0.073181 0.04718-0.10638 0.072262-0.047119 0.035648-0.087097 0.086117-0.13446 0.12244-0.043518 0.033318-0.10181 0.0495-0.14551 0.083309-0.013855 0.010799-0.014221 0.039368-0.028076 0.050167-0.026917 0.021004-0.040283 0.0401-0.067261 0.061222-0.009888 0.007809-0.029175 0.003239-0.039124 0.011051-0.033508 0.026428-0.072754 0.045589-0.10638 0.072258-0.13946 0.11078-0.27325 0.21222-0.41443 0.32825-0.088928 0.072941-0.17926 0.1698-0.26892 0.24493-0.078247 0.0658-0.16205 0.12726-0.24084 0.19471-0.029663 0.025391-0.076599 0.046631-0.10632 0.072258-0.013611 0.011784-0.014526 0.038452-0.028137 0.050171-0.022766 0.019722-0.044434 0.041451-0.0672 0.061279-0.20831 0.18085-0.43207 0.36939-0.64423 0.56214-0.050293 0.04565-0.083984 0.075989-0.13446 0.12243-0.046448 0.04261-0.08783 0.079292-0.13452 0.12244-0.020386 0.018921-0.046753 0.04224-0.0672 0.061222-0.023376 0.021729-0.043823 0.039368-0.0672 0.061218-0.038025 0.035461-0.057251 0.075619-0.095337 0.11139-0.018005 0.016903-0.049255 0.044312-0.067261 0.061211-0.041199 0.03894-0.093079 0.083191-0.13446 0.1225-0.047241 0.044861-0.086975 0.076969-0.13446 0.1225-0.020752 0.01984-0.046448 0.041203-0.0672 0.061222-0.023804 0.02282-0.043396 0.038139-0.067261 0.061218-0.038574 0.037292-0.05658 0.07373-0.095337 0.11138-0.01825 0.017769-0.048889 0.043339-0.0672 0.061279-0.04187 0.04084-0.092468 0.08112-0.13446 0.12244-0.033142 0.032589-0.062439 0.078491-0.095337 0.11139-0.098755 0.09869-0.20044 0.1936-0.29706 0.29504-0.032166 0.033939-0.063354 0.077339-0.095276 0.11145-0.095947 0.10242-0.20319 0.19007-0.29706 0.29511-0.031311 0.034969-0.06427 0.076107-0.095276 0.11145-0.1554 0.17645-0.28766 0.36279-0.4375 0.54602-0.030029 0.03656-0.065613 0.074463-0.095337 0.11139-0.26782 0.33209-0.5174 0.66852-0.76862 1.0197-0.027893 0.03907-0.067627 0.072212-0.095337 0.11145-0.11084 0.15698-0.22333 0.31354-0.33112 0.47376-0.026978 0.039978-0.068542 0.071159-0.095337 0.11139-0.026733 0.040279-0.018555 0.09906-0.045105 0.13952-0.026611 0.040413-0.06897 0.07074-0.095337 0.11139-0.02417-0.0686-0.031921-0.12744-0.055237-0.19568-0.16302-0.47766-0.32367-0.95733-0.48694-1.426-0.11578 0.074947-0.21612 0.16107-0.30804 0.25592 0.19653 0.56653 0.39746 1.1401 0.6023 1.7207 4.8582 13.771 11.907 31.507 14.654 53.089 0.001709 0.013191 0.009399 0.026001 0.011047 0.039131 0.001831 0.013359 0.009277 0.025879 0.011047 0.039124 0.001709 0.01355 0.009338 0.025635 0.011047 0.039185 0.029541 0.23347 0.04187 0.46411 0.070374 0.69849 0.001587 0.013184 0.009399 0.02594 0.011047 0.039185 0.001709 0.013359 0.009338 0.025696 0.011047 0.039124 0.001648 0.01355 0.009399 0.025452 0.011047 0.039131 0.02832 0.23449 0.04303 0.46307 0.070313 0.69848 0.001526 0.013252 0.009521 0.025818 0.011047 0.039131 0.001648 0.013481 0.009399 0.025627 0.011047 0.039116 0.017273 0.14972 0.026367 0.30261 0.043213 0.45264 0.028259 0.25183 0.06543 0.52392 0.092468 0.77679 0.059448 0.55579 0.12543 1.1212 0.17883 1.682 0.013733 0.13964 0.01886 0.27337 0.032227 0.41351 0.012939 0.1405 0.019592 0.27264 0.032166 0.41345 0.027832 0.30365 0.058411 0.60394 0.086426 0.90521 0.10907 1.2053 0.21252 2.3749 0.32361 3.5427 0.001282 0.01281 0.009827 0.026299 0.011047 0.039116 0.026611 0.27899 0.048767 0.58923 0.075439 0.86609 0.056946 0.5791 0.13257 1.1512 0.18988 1.7211 0.028076 0.28497 0.036194 0.54425 0.064331 0.8269 0.057434 0.56537 0.12128 1.1257 0.17889 1.682 0.057617 0.55634 0.12109 1.1347 0.17889 1.682 0.0578 0.54736 0.098816 1.0652 0.15674 1.6037 0.11584 1.077 0.23682 2.1543 0.35272 3.1964 1.707 15.35 3.4018 26.97 4.3516 36.083 0.001282 0.012512 0.009705 0.026611 0.011047 0.039185 0.12903 1.2228 0.22314 2.4069 0.32367 3.5426 0.01239 0.14343 0.03125 0.31049 0.043213 0.45258 0.024353 0.28418 0.041931 0.5481 0.064331 0.82703 0.010925 0.13946 0.021729 0.27527 0.032166 0.41345 0.032043 0.41443 0.069153 0.8374 0.096497 1.2404 0.008911 0.1344 0.023865 0.2804 0.032166 0.41351 0.034363 0.53229 0.07019 1.0237 0.095581 1.5365 0.012207 0.25641 0.004211 0.54712 0.01416 0.79883 0.015564 0.37756 0.042175 0.71674 0.052368 1.0839 0.006348 0.24475-8.54e-4 0.51935 0.003113 0.7597 0.004272 0.24023 0.018311 0.43451 0.020142 0.67035 6.1e-5 0.012512 0.010986 0.026672 0.011047 0.039124 0.001404 0.23596-0.017822 0.44983-0.018982 0.68146-0.001221 0.34741-0.001709 0.67865-0.008911 1.0167-0.005066 0.22536-0.011169 0.46014-0.018921 0.68146-0.007813 0.22125-0.019531 0.42493-0.030029 0.64227-0.061829 1.304-0.17206 2.5565-0.34174 3.7304-0.063354 0.43835-0.11578 0.88759-0.17743 1.3177-0.002502 0.01741-0.025635 0.032837-0.028137 0.050171-0.059021 0.41193-0.10242 0.82338-0.1604 1.2285-0.008606 0.06012-0.025513 0.1187-0.034058 0.17865-0.058594 0.4088-0.1023 0.82573-0.1604 1.2284-0.021973 0.1521-0.063354 0.29523-0.085266 0.44661-0.008911 0.061401-0.025146 0.11737-0.034119 0.17865-0.021118 0.14569-0.024902 0.29051-0.046082 0.43553-0.010376 0.071167-0.012634 0.14673-0.023071 0.21779-0.019348 0.13231-0.03772 0.26463-0.057129 0.39641-0.022095 0.14954-0.06311 0.29779-0.085266 0.44659-0.008606 0.057999-0.025452 0.12073-0.034058 0.17865-0.012329 0.082397 3.05e-4 0.17476-0.012024 0.2569-0.017761 0.11853-0.050293 0.23921-0.068176 0.3573-0.013611 0.089905-0.037476 0.17834-0.051147 0.268-0.016296 0.10687-0.023743 0.2005-0.0401 0.30707-0.016052 0.10437-0.023987 0.20302-0.0401 0.30713-0.015503 0.099976-0.024536 0.20728-0.0401 0.30707-0.048157 0.30859-0.11017 0.62573-0.15948 0.93237-0.014465 0.090088-0.03656 0.17804-0.051147 0.268-0.019104 0.11774-0.048828 0.23968-0.068176 0.3573-0.012207 0.074219-0.010742 0.14362-0.023071 0.21777-0.022034 0.13287-0.03479 0.26373-0.057129 0.39642-0.011719 0.069641-0.01123 0.14813-0.023071 0.21777-0.025818 0.15234-0.098083 0.30548-0.12439 0.45764-0.007141 0.041443 0.001221 0.086975-0.005981 0.12848-0.025146 0.14459-0.020508 0.29108-0.046082 0.43555-0.013733 0.077576-0.04834 0.15124-0.062195 0.22884-0.005066 0.028244-0.011963 0.061081-0.017029 0.08934-0.007324 0.040588 0.001282 0.08783-0.006042 0.12842-0.009827 0.054443-0.035217 0.085083-0.045105 0.13953-0.008301 0.045776 0.002319 0.082703-0.006042 0.12842-0.010925 0.059814-0.023071 0.1189-0.034119 0.17865-0.013306 0.072449-0.048706 0.15643-0.062134 0.22888-0.005249 0.028198-0.01178 0.061035-0.01709 0.089294-0.007568 0.040527 0.001648 0.087952-0.005981 0.12848-0.016541 0.087952-0.034424 0.17999-0.051147 0.26794-0.03009 0.15826-0.043457 0.32745-0.074219 0.48572-0.003418 0.017639-0.024658 0.032654-0.028076 0.050232-0.011536 0.059387-0.0224 0.1192-0.034119 0.17859-0.008911 0.045532-0.036133 0.093994-0.045105 0.13953-0.002319 0.011841 0.013367 0.027344 0.011047 0.039124-0.036621 0.18475-0.10382 0.36212-0.14142 0.547-0.002319 0.011292 0.013306 0.027832 0.010986 0.039124-0.018311 0.089783-0.032532 0.17816-0.051086 0.268-0.002502 0.011841 0.013489 0.027283 0.011047 0.039124-0.0401 0.19336-0.089111 0.3924-0.13043 0.58606-0.020935 0.09845-0.069031 0.1806-0.090271 0.27905-0.046631 0.216-0.071045 0.40869-0.11932 0.62524-0.021973 0.098755-0.02887 0.16907-0.051147 0.26794-0.003967 0.017456-0.02417 0.032837-0.028137 0.050171-0.018555 0.082214-0.032288 0.18573-0.051086 0.268-0.027649 0.12048-0.040039 0.23657-0.068237 0.3573-0.016724 0.071716-0.045227 0.15698-0.062195 0.22882-0.006714 0.028625-0.010254 0.060669-0.017029 0.089355-0.020325 0.085938-0.080688 0.15375-0.10132 0.23981-0.002869 0.011963 0.013916 0.027222 0.011047 0.039124-0.050049 0.20844-0.10669 0.42706-0.15851 0.63635-0.025818 0.10413-0.052979 0.21374-0.079224 0.31818-0.013977 0.055557-0.019958 0.12299-0.034119 0.17865-0.011841 0.046631-0.033203 0.092773-0.045105 0.13946-0.020386 0.079773-0.041565 0.14886-0.062195 0.22888-0.007507 0.028992-0.009521 0.060242-0.017029 0.089294-0.010864 0.041748 0.004883 0.08667-0.006042 0.12848-0.016846 0.064575-0.056213 0.12488-0.073242 0.1897-0.010254 0.038879 0.004333 0.089478-0.005981 0.12842-0.017151 0.064819-0.055908 0.1247-0.073242 0.1897-0.008362 0.031189-0.008667 0.058105-0.01709 0.089294-0.020447 0.076416-0.041382 0.15228-0.062134 0.22888-0.00769 0.028137-0.009399 0.061096-0.01709 0.089294-0.020813 0.076599-0.041016 0.15204-0.062195 0.22882-0.007751 0.028259-0.009216 0.061035-0.017029 0.089355-0.02124 0.076843-0.040649 0.15173-0.062195 0.22882-0.013428 0.048035-0.031616 0.09137-0.045166 0.13946-0.017395 0.062012-0.055603 0.12756-0.073242 0.1897-0.003113 0.011047 0.014221 0.028076 0.011108 0.039185-0.0271 0.095398-0.062805 0.18323-0.090332 0.27899-0.004822 0.016663-0.023254 0.033386-0.028076 0.050171-0.025696 0.089172-0.025085 0.17847-0.051147 0.26794-0.035156 0.12103-0.082458 0.2077-0.11835 0.32922-0.095825 0.32434-0.17584 0.63715-0.27692 0.96545-0.052979 0.17242-0.0979 0.33429-0.15247 0.50787-0.036011 0.11475-0.081665 0.21387-0.11835 0.32916-0.014771 0.046387-0.030273 0.093079-0.045166 0.13953-0.028564 0.089233-0.061279 0.18939-0.090271 0.27899-0.005798 0.018066-0.022217 0.032104-0.028076 0.050232-0.029114 0.089661-0.060791 0.18896-0.090271 0.27899-0.005981 0.018127-0.022156 0.031982-0.028137 0.050171-0.029297 0.089355-0.021362 0.17828-0.051147 0.26794-0.048096 0.14508-0.1253 0.28351-0.17456 0.42956-0.024719 0.073364-0.03717 0.15521-0.062195 0.22882-0.012512 0.036804-0.043579 0.063538-0.056152 0.10034-0.025208 0.07373-0.036743 0.15485-0.062195 0.22882-0.015015 0.043518-0.03009 0.095947-0.045166 0.13959-0.022034 0.063721-0.050964 0.12567-0.073242 0.18964-0.016663 0.047974-0.028259 0.091431-0.045105 0.13946-0.0224 0.064148-0.050598 0.12543-0.073242 0.1897-0.017029 0.048218-0.028015 0.091248-0.045166 0.13953-0.022766 0.064392-0.050232 0.12512-0.073242 0.1897-0.019409 0.054626-0.014465 0.1239-0.034058 0.17865-0.036194 0.10089-0.092712 0.18866-0.12946 0.29004-0.006409 0.017883-0.021606 0.032349-0.028076 0.050171-0.017029 0.046997-0.028015 0.092468-0.045166 0.13953-0.024719 0.067932-0.048218 0.12158-0.073181 0.1897-0.019531 0.053162-0.014465 0.1253-0.034119 0.17859-0.022949 0.062134-0.05011 0.1275-0.073242 0.1897-0.017578 0.047546-0.027405 0.09198-0.045166 0.13953-0.065186 0.17505-0.12476 0.34235-0.19159 0.51886-0.006592 0.017456-0.021484 0.032776-0.028076 0.050232-0.033813 0.089172-0.05603 0.18945-0.090332 0.27899-0.012817 0.033569-0.043274 0.066772-0.056152 0.1004-0.010437 0.027222-0.006592 0.062073-0.01709 0.089294-0.035339 0.091858-0.10461 0.15863-0.14044 0.25092-0.010559 0.027283-0.006409 0.062012-0.017029 0.089294-0.036682 0.09436-0.092285 0.19537-0.12946 0.2901-0.004333 0.010986 0.015381 0.028076 0.011047 0.039124-0.043396 0.1106-0.07428 0.21796-0.11835 0.32922-0.006531 0.016418-0.021606 0.033691-0.028076 0.050171-0.041199 0.10358-0.087769 0.18585-0.12946 0.29004-0.018372 0.045959-0.026611 0.093506-0.045166 0.13953-0.081238 0.20209-0.16431 0.41498-0.2478 0.6192-0.097778 0.23938-0.203 0.4773-0.30396 0.71967-0.007324 0.017639-0.020752 0.032532-0.028076 0.050171-0.094116 0.22559-0.17908 0.44116-0.27594 0.66943-0.007568 0.017883-0.020447 0.032288-0.028076 0.050171-0.045227 0.10651-0.11163 0.23309-0.15753 0.34027-0.007263 0.01709-0.020752 0.033081-0.028076 0.050171-0.045593 0.10632-0.072205 0.22229-0.11835 0.32922-0.063843 0.14752-0.1377 0.33099-0.2027 0.47974-0.039124 0.089478-0.10089 0.16095-0.14044 0.25092-0.019409 0.044006-0.025696 0.095276-0.045166 0.13953-0.035645 0.08075-0.065369 0.15863-0.10132 0.23981-0.044312 0.10004-0.084595 0.18953-0.1294 0.29004-0.015137 0.03389-0.041077 0.066467-0.056213 0.1004-0.021423 0.047791-0.023621 0.091553-0.045166 0.13946-0.036682 0.08197-0.06427 0.15765-0.10132 0.23987-0.050476 0.112-0.10638 0.22766-0.15753 0.34027-0.007751 0.017212-0.020264 0.03302-0.028076 0.050171-0.026855 0.059082-0.046204 0.13043-0.073242 0.1897-0.031433 0.06897-0.080688 0.13153-0.11237 0.20074-0.031067 0.06781-0.081055 0.13269-0.11237 0.20076-0.028198 0.06134-0.0448 0.1281-0.073242 0.18962-0.0354 0.076721-0.065613 0.16298-0.10132 0.23993-0.024353 0.052429-0.059814 0.0979-0.08429 0.15051-0.038513 0.082764-0.0625 0.1568-0.10132 0.23987-0.024719 0.052856-0.059448 0.097595-0.08429 0.15059-0.040955 0.087326-0.04895 0.19121-0.090271 0.27898-0.023254 0.049377-0.060913 0.10107-0.08429 0.15057-0.10712 0.2267-0.24438 0.4621-0.35419 0.69153-0.013245 0.027588-0.003784 0.061661-0.017029 0.089355-0.054749 0.11414-0.10217 0.2253-0.15753 0.34021-0.015442 0.032043-0.04071 0.068237-0.056213 0.10034-0.051575 0.10687-0.11633 0.1936-0.16852 0.30115-0.013611 0.028015-0.003418 0.061218-0.01709 0.089294-0.12701 0.26129-0.27978 0.52698-0.41034 0.79187-0.004883 0.009949 0.01593 0.029236 0.011047 0.039124-0.071777 0.14557-0.14087 0.29401-0.21368 0.44061 14.172-25.12 21.558-61.664 18.346-101.65-2.3312-29.018-9.884-55.398-20.728-76.295z" fill="url(#s)" opacity=".456"/>
   <path d="m585.14 272.7c-44.631 19.31-90.497 62.439-123.42 121.24-27.274 48.719-40.722 99.394-40.63 142.72l0.9071 0.4089c15.181-6.7474 29.896-14.185 44.128-22.269 4.2988-22.14 10.227-47.594 18.686-78.2 12.869-46.565 32.938-48.451 59.683-78.908 5.998-6.8304 10.714-11.631 14.576-15.228-4.88e-4 -0.001099-0.00592-0.020935-0.00824-0.029297-4.0237 2.8414-8.6902 5.7264-14.023 8.7704 16.024-10.46 21.64-18.435 28.084-26.608 7.7287-9.8029 6.2062-12.151 10.61-43.083 0.44348-3.1154 0.92773-6.0514 1.4059-8.8198z" fill="url(#t)" opacity=".456"/>
  </g>
 </g>
 <path d="m29.393 42.722c-2.5531-0.51819-5.1133-0.3634-7.6522 0.62225 3.222 4.6919 4.1443 11.532 3.9333 19.52-0.64674-5.354-3.467-15.682-5.4808-17.72-0.0275-0.026859-0.068649-0.081787-0.10128-0.11383-0.0315-0.02515-0.12915-0.068851-0.16706-0.09613-0.00453-7.4e-4 -0.026199-0.005371-0.02986-0.006111-0.016521-0.013119-0.0597-0.064449-0.077461-0.077938-0.00432-7.32e-4 -0.02614-0.00531-0.029869-0.006042-0.003731-7.29e-4 -0.026421-0.005558-0.02985-0.006039-0.012421-0.010441-0.071239-0.03809-0.08354-0.0481-0.00456-8.51e-4 -0.021271-0.00433-0.02986-0.006042-0.015491 0.004211-0.080231 0.00732-0.095661 0.011662-0.004169-0.001099-0.02623-0.00531-0.029881-0.006111-0.008558 0.005859-0.063389 0.041752-0.07185 0.047611-0.00457-0.001041-0.026258-0.005249-0.029869-0.006039-0.003521-8.62e-4 -0.055799-0.011051-0.059731-0.01215-7.59e-4 0.00354-0.00592 0.028927-0.006079 0.02985-0.03923 0.017269-0.07254 0.050598-0.1078 0.071407-0.006889 0.00433-0.02919 0.019352-0.035929 0.0238-0.006571 0.004581-0.029501 0.019051-0.035921 0.023811-0.03146 0.02441-0.08605 0.07312-0.11388 0.10125-0.01083 0.011539-0.03171 0.041512-0.042 0.05365-0.010019 0.012451-0.03252 0.040588-0.042 0.05365-0.018419 0.026798-0.06765 0.078072-0.084 0.10736-0.015841 0.029911-0.040239 0.08094-0.05414 0.11341-0.75147 1.8527 1.4767 7.7604-1.1584 21.316-3.0115 15.492-5.5624 22.992-8.9506 40.537s-1.9162 14.944-3.2469 30.065c-1.3306 15.121-1.21 11.361-0.9608 31.058 0.24915 19.698-4.6709 19.554 2.966 48.774 7.6024 29.087 19.445 33.683 32.737 64.338 13.303 30.68 5.0571 31.147 22.802 55.074 7.7323 10.426 11.925 13.929 17.077 17.432-24.691-21.414-12.262-41.696-26.655-75.293-11.574-27.018-5.747-36.068-16.413-52.843-10.44-16.42 12.284-40.006 12.776-66.1 0.016232-0.86371 0.062832-1.7211 0.12141-2.5876 8.09e-4 -0.00354 0.005161-0.025757 0.006069-0.029907-0.004379-0.014709-0.03714-0.086975-0.041531-0.10168 0.001022-0.004089 0.00526-0.026367 0.006062-0.029846-0.43697-10.556-1.6405-23.216-1.7755-35.346-2.1168 2.4583-4.9285 3.3687-13.722 1.5662 7.9302 0.77216 9.6977-2.7142 13.518-5.4636 0.12642-6.7703 0.92602-14.743 2.2494-20.41 3.8963-16.685 5.3249-33.4-4.9345-44.136-4.6314-4.8462-9.5176-8.7325-14.475-10.186-0.078711-0.023132-0.1602-0.026733-0.23892-0.04858-0.079979-0.02216-0.15888-0.027592-0.23893-0.048523-0.16527-0.043217-0.34236-0.06543-0.50772-0.10315-0.12549-0.028629-0.25661-0.08326-0.38218-0.10871zm57.196 34.104c-1.4098-0.22217-2.8543-0.17474-4.3576 0.17206 2.104 4.8976 1.8079 11.479 0.24118 19.019 0.36895-5.0814-0.44598-15.723-1.9725-17.691-0.012718-0.009827-0.06472-0.068176-0.077454-0.077942-0.012642-0.009834-0.041191-0.032532-0.053673-0.041992-0.002808-0.004822-0.050697-0.037346-0.053658-0.041992-0.00296-0.004517-0.01445-0.060364-0.017746-0.065796-0.003883-9.08e-4 -0.026665-0.005135-0.029854-0.006042-0.003464-0.001099-0.055885-0.011047-0.059731-0.012146-0.012733-0.009819-0.041-0.03228-0.053665-0.041992-0.00354-7.32e-4 -0.055687-0.011467-0.059731-0.012138-0.008408 0.005608-0.027534 0.01812-0.035934 0.023796-0.004555-8.47e-4 -0.021278-0.004326-0.029869-0.006096-0.003586-0.005806-0.050766-0.037483-0.05365-0.042-0.015587 0.004204-0.05027 0.013367-0.065811 0.017761-0.014793 0.003235-0.086494 0.036987-0.10172 0.041504-0.020576 0.012573-0.082352 0.028259-0.10173 0.041565-0.0383 0.02198-0.10907 0.067505-0.14374 0.095154-1.3291 1.1754 0.04361 6.9412-4.836 19.978-5.2486 14.022-10.066 18.963-15.22 34.506-5.6083 16.912-5.746 15.698-7.268 29.653-1.1066 10.146-2.0098 15.355-6.7369 27.957-6.3108 16.824-10.511 21.075 1.2852 47.25 4.0977 9.0928 5.4399 25.297 9.4132 37.551 2.4661 7.6059 5.3166 17.018 8.0274 29.37 6.6973 30.518 5.354 32.973 13.792 42.172 7.0344 7.6692 13.235 15.205 29.989 24.44-5.5448-2.638-10.413-5.1672-14.638-7.7007-0.001709 0.008545-0.005585 0.028748-0.006073 0.029846 4.1191 3.2996 9.1796 7.7347 15.67 14.099 28.941 28.378 49.095 28.763 65.4 74.239 10.851 30.264 18.705 55.461 24.671 77.409 34.191 15.915 70.699 28.237 109.14 36.353-1.6287-49.866 3.6592-145.82-10.761-158.89-2.4007 13.135-11.167 22.513-13.982 22.598-0.004395-0.001099-0.026245-0.005371-0.029877-0.006104-0.015625 0.004517-0.080475 0.007507-0.095673 0.011658-0.003479-7.32e-4 -0.02594-0.005066-0.029846-0.006042-0.008484-0.00177-0.025818-0.005188-0.029877-0.006104-0.015839-0.003113-0.067352-0.014099-0.089569-0.018188-0.005066-0.001099-0.025391-0.004883-0.029907-0.006042-0.011536-0.009216-0.070465-0.037537-0.083496-0.048096-0.001862-3.66e-4 -0.020874-0.004211-0.029877-0.006042-0.012512-0.009644-0.071259-0.038025-0.083527-0.048096-0.01178-0.008972-0.05896-0.063049-0.077454-0.077942-0.019135-0.014709-0.0448-0.034851-0.05368-0.041992 9.8465-14.96 10.296-25.868 9.8104-30.38-2.0524-19.089-4.6604-41.866-8.2117-47.445 1.2106 9.9217-2.0315 19.653-7.1354 27.316 4.9888-10.652 5.961-34.856-3.5735-35.68 1.2879 4.0192 0.43082 28.7-8.5011 36.182 7.7506-56.117-13.802-37.938-28.668-77.785-14.865-39.847-17.548-55.344-33.188-79.419-11.267-17.344-22.578-14.376-30.308-12.004-4.2735 1.6202-6.2864 3.5035-8.5828 5.9688-3.9524 4.2176-11.566 5.6626-8.4476 26.428 3.5129 23.394 9.6978 45.476 22.336 64.868 16.288 24.993 12.268 23.08 15.88 47.51 2.5184 17.033 8.7705 36.152 15.699 46.105-4.0085-3.1736-11.126-9.438-14.147-21.595-2.1845-8.7909-2.6639-17.401-3.3522-25.902-0.01059-0.015991-0.013184-0.019958-0.023788-0.03595-4.0634-6.1265-9.1601-11.465-17.72-14.266 2.4835-0.98554 4.5401-0.82227 6.4673-0.14777 0.16975 0.059448 0.32176 0.12634 0.48952 0.19275 1.6213 0.64246 3.1567 1.6192 4.7505 2.3334 1.9127 1.2618 3.6765 2.7018 5.3001 4.3731-1.0243-8.6918-2.9016-17.294-7.7569-25.957l-30.829-15.561c-3.2345-1.1184-8.0561 0.53119-8.8595 2.585-7.02e-4 0.00415-0.011398 0.056152-0.012146 0.059753-0.016708 0.028564-0.073395 0.086792-0.084 0.1073-7.17e-4 0.00354-0.005386 0.025879-0.006058 0.029907-8.09e-4 0.003723-0.005295 0.025574-0.006073 0.029846-0.006989 0.036133-0.030655 0.143-0.036407 0.1792-5.65e-4 0.03894 0.02774 0.12244 0.029404 0.16144-0.001038 0.003784-0.005295 0.026428-0.006073 0.029907-0.001099 0.003845-0.011368 0.056213-0.012131 0.059692 0.004089 0.015259 0.013306 0.050476 0.017731 0.065796 0.024292 0.10248 0.055862 0.23425 0.088654 0.32904-0.001221 0.004456-0.00531 0.026123-0.006073 0.029846-3.66e-4 0.001831-0.004288 0.020935-0.006058 0.029846 0.003311 0.00592 0.043564 0.065918 0.047592 0.071899 0.017166 0.025269 0.039169 0.05835 0.047592 0.071838 0.069092 0.13098 0.17844 0.29858 0.28558 0.43121 0.15117 0.18048 0.36873 0.39264 0.60196 0.55768l9.5232 9.1494c4.3906 5.438 8.1569 9.6268 8.3032 15.308-4.2295-5.509-9.0998-10.386-15.676-10.244 8.9053 12.943 23.935 26.204 35.548 35.957-12.559-7.7982-27.843-21.818-44.54-39.152-1.3391 2.6706-2.9945 5.2451-4.9785 7.8205 4.6306-9.6635 6.793-18.78 5.1919-28.924-1.9338-5.6722-4.3239-8.6389-6.7544-11.604-0.76936 5.4801-0.74997 11.281-3.8606 15.636 2.1898-5.7456 1.3997-12.428-0.21598-19.449-2.6592-6.7756-6.2525-12.343-10.425-17.107 0.049911 8.2198-3.2719 13.033-7.5939 16.867 2.8516-6.8416 5.7022-13.662 2.5317-20.881-5.1024-14.889-15.676-33.163-20.88-44.172-4.4644 2.2202-9.4346 3.61-14.913 4.3716 5.0992-1.8767 9.6947-4.0303 13.839-6.7357-1.4651-3.3359-2.2336-5.7286-1.8501-6.8132 0.003189-0.008423 0.002754-0.021606 0.006081-0.029846 4.1576-10.311 5.9682-39.116 4.1058-55.112-2.3097 2.0114-4.9881 2.4518-12.663-0.58228 7.0385 1.944 9.2755-1.0142 13.152-3.0502 1.2383-6.2978 3.2714-13.617 5.388-18.715 6.2321-15.01 10.257-30.405 2.942-41.882-4.2422-6.6561-9.1647-11.823-14.832-12.716zm-86.99-10.52c-3.4521-0.56128-6.5456 0.4873-9.9701 2.2349 3.1165 3.6754 4.4694 9.3392 4.9717 16.093-1.063-4.6152-6.3313-14.596-6.333-14.597-0.003759-0.001099-0.0216-0.004578-0.029869-0.006104-0.00331-0.005737-0.050611-0.037476-0.053671-0.042-0.00383-7.25e-4 -0.026299-0.005486-0.029869-0.006035-0.003441-7.32e-4 -0.025841-0.005371-0.02986-0.006104-0.00422-7.25e-4 -0.05588-0.011292-0.05972-0.012085-0.0092-0.00177-0.02811-0.005432-0.02988-0.006104-0.00354-7.32e-4 -0.025721-0.005371-0.02985-0.006042-0.00447-0.001038-0.056021-0.01136-0.059751-0.012146-0.01088 0.00708-0.03377 0.021965-0.03592 0.023796-0.004149-0.00116-0.026139-0.005234-0.02987-0.006035-0.00351-8.54e-4 -0.05577-0.010986-0.05973-0.012146-0.00499 0.003487-0.03144 0.020813-0.03594 0.023804-0.03769 0.021362-0.11113 0.069946-0.14372 0.095146-0.01495 0.012886-0.02822 0.039925-0.04201 0.053726-0.00446 0.004631-0.03158 0.018974-0.03592 0.023735-1.0536 1.2274 1.7937 5.8078 0.65557 18.357-1.203 13.265-2.7126 19.794-4.0562 34.814-1.3436 15.021-0.29577 12.729-0.11925 25.538 0.17643 12.809-0.40753 9.6812 1.8392 26.154 4.7768 35.022 0.97802 41.017 6.0253 51.012 3.2869 6.509 14.365 14.468 26.084 23.15-11.745-18.993-13.49-28.703-16.682-43.101-2.7383-12.351 0.48806-31.977 1.052-71.001 0.34922-24.162 6.7359-44.226 10.873-59.49l-0.2977-0.3715c-0.93911-1.2329-1.9565-2.3417-3.092-3.3026-3.4651-2.9325-6.3936-4.6425-9.0506-5.3528-0.0858-0.022949-0.15371-0.027649-0.23893-0.048515-0.33157-0.08149-0.63113-0.14143-0.95569-0.19416zm198.04 151.97c0.33174 0.044983 0.6436 0.12354 0.95569 0.19415 0.14645 0.033142 0.30711 0.052002 0.44798 0.091003 0.008316 0.001648 0.02655 0.005371 0.029877 0.006042 0.033401 0.006226 0.086624 0.016296 0.11943 0.024292 0.005692 0.00177 0.024643 0.004822 0.029892 0.006042 0.014771 0.002625 0.045578 0.010071 0.059708 0.012146 0.004913 9.77e-4 0.024719 0.004761 0.029892 0.006104 0.31267 0.107 0.62729 0.24286 0.91928 0.37335 1.6179 0.72302 2.8289 1.9523 3.4611 3.7818 1.809 5.2355 4.1469 11.31 4.393 17.717-0.53514-5.7474-3.1178-11.216-4.996-15.973-3.6938-9.3558-23.961-2.279-35.798 4.7626 8.8539-5.8705 22.35-12.086 30.348-11.001zm-98.727 2.707c5.4478 12.241 16.672 36.772 17.802 38.353 5.5614 3.8357 10.063 10.588 14.091 18.505 0 0 11.712 11.17 12.653 19.768 0.18356 1.6783 0.15764 2.9626 0.06987 4.5545l0.9375-1.7065c1.0657-2.4026 5.275-3.2701 9.1441-1.843l20.503 9.1409c-6.241-8.7911-7.366-7.0226-13.434-24.342-3.017-8.6116-5.5782-15.828-7.3482-22.764-0.008423-0.013-0.014923-0.061523-0.017731-0.065796-2.5158-3.3804-4.0646-6.6216-10.817-12.118-12.623-10.274-26.506-12.695-38.034-22.498-1.9459-1.6549-3.7779-3.3387-5.5493-4.9836zm106.45 23.71c0.32199 0.051147 0.61821 0.11902 0.92583 0.18811 0.044632 0.01001 0.13104 0.027893 0.17918 0.036377 0.026718 0.005066 0.059937 0.011597 0.0896 0.018188 0.004517 0.00116 0.02597 0.004883 0.029877 0.006104 0.013962 0.002441 0.04628 0.009338 0.059723 0.012146 0.00177 6.71e-4 0.028198 0.005188 0.029877 0.006042 0.002762 0.002686 0.021042 0.033142 0.023804 0.03595 0.002899 0.002441 0.026688 0.004028 0.029846 0.006042 0.00296 7.93e-4 0.02652 0.005371 0.029861 0.006104 0.014832 0.00238 0.048889 0.009216 0.059738 0.012085 0.35803 0.095581 0.7162 0.21515 1.0509 0.33789-0.018982 0.1441-0.038803 0.31024-0.061172 0.45404-12.202-1.1652-31.737 7.4531-37.395 13.083 2.6257 2.4425 5.6851 4.2436 9.2205 4.5165 9.1062 0.703 19.744-2.7399 24.982-9.6963 0.049561-0.065796 0.083481-0.12439 0.13208-0.19086-0.041809 0.064697-0.089569 0.12665-0.13208 0.19086-5.3369 8.0598-16.352 12.425-25.742 11.905-8.6322-0.47723-14.219-10.867-17.478-16.985-1.5035-2.8224-3.4678-7.4869-2.8901-10.725-0.11345 2.9428 1.869 6.9281 3.3185 9.3817 1.8792 3.181 4.5278 7.5988 7.9636 11.01 0.002289 6.1e-4 0.057373 0.011292 0.059723 0.012146 0.091339-0.36182 0.1913-0.7196 0.36168-1.015 0.01413-0.023499 0.03154-0.055237 0.04808-0.083557 0.00267-0.004333 0.003479-0.026062 0.006058-0.029846 3.4302-5.0336 23.644-14.313 35.098-12.493zm21.236 58.954c-6.6764 6.7928-23.223 16.252-34.321 10.505-4.1483-2.1482-6.264-4.3107-6.5698-5.4708-0.00354-0.014648-0.0056-0.072876-0.011673-0.095642 0.003082-0.013916 0.014893-0.075867 0.018219-0.0896-0.004517-0.015503-0.04335-0.05658-0.047607-0.071899 7.48e-4 -0.003479 0.011139-0.055786 0.012131-0.059692 0.002808-0.014038 0.009079-0.045837 0.012131-0.059753 0.001328-0.007568 0.010559-0.052307 0.012146-0.059753 9.31e-4 -0.003601 0.004532-0.021667 0.006042-0.029846 6.71e-4 -0.00354 0.005402-0.025757 0.006088-0.029846 6.41e-4 -0.00354 0.01149-0.055542 0.012131-0.059753 0.009491-0.012512 0.061798-0.035461 0.071869-0.047607 0.009933-0.012451 0.033203-0.065186 0.04808-0.083496 0.006439-0.004272 0.026062-0.017395 0.035919-0.023804 0.00621-0.004272 0.065384-0.043518 0.071854-0.047607 0.008011-0.005615 0.02771-0.018433 0.03595-0.023804 0.008499-0.005798 0.02742-0.018066 0.035919-0.023804 0.02298-0.006287 0.088989-0.03772 0.10173-0.041504 0.001938 6.1e-4 0.020798 0.004333 0.029861 0.006042 0.015167-0.004333 0.080307-0.007507 0.095688-0.011658 0.029953-0.003906 0.093323-0.00354 0.12552-0.005615 0.94458-0.040894 2.8365 0.69995 5.5326 2.6167 8.015 5.6982 27.028 0.015015 34.686-6.792zm-4.783 10.379c0.006638-0.003967 0.023178 0.01001 0.029831 0.006042-5.8978 4.1571-17.538 9.3318-25.182 6.546-3.0008-1.0936-4.5531-2.2817-4.8083-2.9671-0.011261-0.035889-0.042801-0.14941-0.053177-0.19739 6.87e-4 -0.003479 0.005157-0.026184 0.006058-0.029907 0.00267-0.01416 0.01355-0.069092 0.018188-0.0896 0.009552-0.012573 0.06163-0.035339 0.071884-0.047546 0.009247-0.012817 0.03804-0.071167 0.048065-0.083557 0.005783-0.003601 0.027191-0.017761 0.035934-0.023804 0.001907-9.77e-4 0.031708-0.020935 0.03595-0.023804 0.004257-0.002808 0.03392-0.022766 0.035919-0.023804 0.014969-0.004395 0.050903-0.014343 0.065811-0.0177 0.64844-0.16217 2.1879 0.15002 4.3711 1.2923 5.4982 2.8765 18.654-0.39539 25.325-4.3401zm-80.549-1.9655c-0.24008 1.0056-0.46045 1.9962-0.79199 2.98 3.8305 0.71765 7.8149 2.2916 12.102 6.2526-2.2757-3.4722-5.5504-6.6225-10.874-9.0818-0.00325-0.00531-0.020996-0.031555-0.023819-0.035889-0.004608-7.93e-4 -0.056061-0.011475-0.059738-0.012146-0.037003-0.010193-0.1057-0.023743-0.14932-0.030334-0.015335-0.002502-0.066849-0.013733-0.0896-0.01825-0.00499-0.001099-0.021988-0.004517-0.029846-0.006042-0.002731-0.004395-0.017212-0.026123-0.023804-0.03595-0.003479-6.1e-4 -0.055786-0.011536-0.059738-0.012085z" fill="#fff" stroke-linecap="round" stroke-linejoin="round" stroke-width="10"/>
 <g fill-rule="evenodd">
  <path d="m98.906 220.99c1.7714 1.6449 3.5979 3.3307 5.5439 4.9856 11.528 9.8037 25.424 12.228 38.047 22.503 6.7525 5.4963 8.3021 8.7352 10.818 12.116 0.003754 0.005676 0.02919 0.04187 0.031769 0.047974 1.7699 6.9359 4.3072 14.165 7.3242 22.776 6.0678 17.32 7.1957 15.559 13.437 24.35l-20.509-9.1462c-3.8691-1.4272-8.0639-0.56415-9.1296 1.8386l-0.8762 2.2704c0.10391-1.6698 0.072754-3.3662-0.12006-5.1287-0.94044-8.598-12.669-19.754-12.669-19.754-4.0275-7.9175-8.5231-14.67-14.084-18.506-1.13-1.5812-12.365-26.112-17.813-38.352h-1.5e-5zm6.3639 8.0985c4.0994 8.3126 12.51 24.942 13.463 26.264 3.6347 2.3994 6.6892 6.3325 9.4654 11.011 0.001816 0.003113 0.029358 0.045166 0.031738 0.047974 0.006226 0.004944 0.034302 0.002808 0.039871 0.008057 0.00238 0.002869-0.009918 0.036804-0.008102 0.039917 14.556 15.917 27.52 25.644 20.337 0.18921 0.001984-0.003479 0.00679-0.036499 0.008087-0.039856-0.070816-0.18463-0.15186-0.35992-0.22165-0.54297-7.17e-4 -0.003662 0.00856-0.036072 0.008087-0.039856-5.8e-4 -0.00769 0.009033-0.032288 0.008102-0.039856-7.02e-4 -0.003662-0.038834-0.004578-0.039856-0.008118-0.04512-0.11847-0.089783-0.24146-0.13449-0.35925-1.18-3.1118-2.1936-6.0245-3.0199-8.8301-1.8702-2.3304-3.0536-4.5173-8.014-8.3507-9.2726-7.1658-19.375-9.0788-27.85-15.908-1.4306-1.1528-2.7684-2.2987-4.073-3.4418z"/>
  <path d="m105.28 229.1c1.3046 1.1431 2.6535 2.2745 4.0841 3.4272 8.4753 6.8291 18.558 8.7214 27.83 15.887 4.9604 3.8334 6.1284 6.054 7.9987 8.3845 0.82622 2.8057 1.8669 5.7151 3.0468 8.8268 0.044678 0.11786 0.095795 0.22894 0.14092 0.34741 0.008194 0.028381 0.004562 0.061829 0.012711 0.090088 0.069794 0.18298 0.13409 0.35577 0.20493 0.5404 0.002991 0.010559-0.0159 0.028076-0.012924 0.038574 7.1829 25.455-5.7501 15.718-20.306-0.19904-0.014572-0.024597-0.049622-0.039795-0.064209-0.064392-2.7762-4.6785-5.8388-8.6237-9.4734-11.023-0.84111-1.0892-9.3303-17.878-13.462-26.256z" fill="url(#o)"/>
  <path d="m189.41 206.43c-5.9219-1.1514-12.705-0.32971-20.448 4.5222 7.4005-1.5618 20.964-9.997 34.471 10.797 15.639 24.075 18.292 39.565 33.158 79.413 14.865 39.847 36.395 21.632 28.644 77.749 8.932-7.482 9.8427-32.12 8.5548-36.14 9.8353 0.85059 8.4497 26.497 3.0508 36.569 5.475-7.833 8.8313-18.034 7.5092-28.391 3.6389 5.1113 6.21 28.258 8.2948 47.648 0.48517 4.5123 0.072083 15.397-9.7744 30.356 1.6725 1.9978 11.977-7.9074 14.615-22.345 17.695 16.04 11.601 87.194 9.5556 114.77-1.2421 16.746-6.6552 42.403-6.6552 42.403 3.8901 0.88525 15.308 3.2229 17.095 3.5662 0 0 11.661-11.021 9.9857-56.654-1.1555-31.474-16.152-91.538-27.776-115.54-0.59955-23.113-4.4232-49.426-29.986-66.858-17.484-11.923-21.074-4.9705-33.05-37.999-9.314-25.686-20.452-76.911-45.613-83.467-0.54167-0.14117-1.0737-0.28522-1.6305-0.39343z"/>
  <path d="m209.97 400.63c-6.9281-9.9531-13.164-29.088-15.682-46.121-3.6119-24.429 0.41368-22.49-15.874-47.483-12.638-19.392-18.847-41.504-22.36-64.898-3.5129-23.394 6.6293-22.239 9.775-28.187-6.3563 1.9612-12.397 8.2645-12.671 18.458-0.50905 18.891 4.4134 32.777 12.063 53.99 7.6495 21.212 8.0382 16.21 17.068 30.369 13.113 20.562 8.1923 40.832 13.517 62.261 3.021 12.157 10.156 18.438 14.165 21.612z"/>
  <path d="m229.19 300.41c-3.1455 6.2305-23.839 20.503-36.904 13.736-9.0766-4.7004-8.411-9.4239-0.3855-3.7182 9.2452 6.5728 33.073-2.0596 37.29-10.018z"/>
  <path d="m225.22 311.12c-2.6171 3.7993-18.876 12.986-28.576 9.4505-6.7387-2.4558-6.0628-5.2744-0.16008-2.1862 6.7999 3.5576 25.242-2.4042 28.736-7.2643z"/>
  <path d="m207.86 245.38c-0.018982 0.14404-0.042664 0.30615-0.065002 0.45001-12.25-1.1697-31.847 7.481-37.418 13.11-0.20032-0.18567-0.38283-0.38696-0.5778-0.57959 0.001129-0.002991 0.011856-0.035522 0.012909-0.038574 0.10438-0.41351 0.24348-0.80627 0.46474-1.131 3.6982-5.4268 26.874-15.74 37.583-11.811z"/>
  <path d="m200.23 219.01c1.6179 0.72302 2.8213 1.9438 3.4534 3.7734 2.2564 6.5302 5.4311 14.293 4.2215 22.473 0.93991-7.4822-2.4112-14.68-4.8029-20.738-4.0574-10.277-28.105-0.67535-39.015 6.8704 9.3514-7.0758 28.008-16.015 36.143-12.379zm6.1618 31.658c-4.3169 10.018-16.957 15.521-27.48 14.939-8.6323-0.47723-14.255-10.858-17.514-16.977-1.632-3.0636-3.8579-8.3298-2.7339-11.553-0.60489 2.9806 1.5913 7.5034 3.1862 10.203 3.3879 5.7347 9.2283 15.467 17.799 16.129 10.336 0.79791 22.587-3.7895 26.743-12.741z"/>
  <path d="m31.889 39.621c-1.1009-0.16535-2.178-0.17462-3.2512-0.069637-13.523 1.3232-12.098 3.7449-11.921 16.89 0.20781 15.405-13.826 42.407-14.35 78.593-0.56408 39.024-3.7964 58.68-1.0581 71.031 3.7244 16.799 5.4825 27.216 23.446 53.432 28.461 41.535 12.586 69.407 52.531 96.41 26.485 17.904 33.066 30.659 56.237 48.774 8.6722 6.7797 23.622 19.848 36.25 47.046 10.301 22.186 15.631 48.762 20.064 72.99 3.0634 1.503 6.1429 2.953 9.2447 4.3971-5.9618-21.94-13.8-47.121-24.647-77.373-16.305-45.476-36.459-45.861-65.4-74.239-6.4906-6.3643-11.521-10.793-15.64-14.093-0.045792-0.027466-0.091637-0.062622-0.13721-0.090088-5.1492-3.0969-9.3758-6.1677-12.876-9.1776-0.049789-0.033691-0.11755-0.062561-0.16708-0.09613-0.02533-0.02002-0.052223-0.057983-0.077454-0.077942-5.1517-3.5035-9.3803-6.9823-17.113-17.408-17.745-23.927-9.5286-24.399-22.832-55.08-13.292-30.655-25.135-35.251-32.737-64.338-7.6371-29.22-2.687-29.07-2.9362-48.768-0.24916-19.698-0.36992-15.938 0.9608-31.058 1.3306-15.121-0.14736-12.491 3.2408-30.036s5.9152-25.082 8.9268-40.573c2.6704-13.737 0.3622-19.63 1.2064-21.399 0.030741-0.0611 0.09306-0.13977 0.13208-0.19086 0.01001-0.012512 0.03142-0.041813 0.042-0.053711 0.03796-0.040409 0.10471-0.091862 0.14979-0.12506 0.00659-0.004578 0.02919-0.019291 0.03594-0.023739 0.006891-0.004341 0.02887-0.019661 0.035931-0.023811 0.02883-0.016109 0.070339-0.027771 0.10173-0.041557 0.005859-0.002571 0.028259-0.022591 0.035919-0.023811 0.01244-7.9e-4 0.04924 0.013741 0.05975 0.01215 0.024151-0.005249 0.07114-0.010071 0.095661-0.011662 0.01582-0.00201 0.04595-0.01495 0.0658-0.0177 0.002069 2.4e-4 0.02652 0.004883 0.029869 0.006042 0.003351 0.001221 0.02775 0.00568 0.02985 0.006039 0.02005 0.006599 0.04689 0.008121 0.059731 0.01215 0.008591 0.003109 0.044769 0.00745 0.059731 0.01215 0.006701 0.002319 0.02556 0.00415 0.029869 0.006042 0.019571 0.009518 0.050941 0.056877 0.077461 0.077938 0.00396 0.00293 0.026548 0.004089 0.029869 0.0061 0.02652 0.017162 0.070829 0.05994 0.10733 0.083992 0.005409 0.003838 0.025379 0.002438 0.02986 0.006039 0.00453 0.00378 0.01874 0.031311 0.02379 0.03595 0.032619 0.032101 0.07987 0.057129 0.10735 0.083981 2.0138 2.0385 4.8341 12.366 5.4808 17.72 0.21102-7.9882-0.71732-14.798-3.9394-19.49 7.9291-3.0784 16.071 2.0691 23.501 9.8433 10.26 10.735 8.8009 27.444 4.9046 44.13-1.3234 5.667-2.0932 13.646-2.2195 20.416-3.9114 2.8148-5.722 6.3356-14.145 5.3362 9.2657 1.9677 12.191 1.0446 14.355-1.4686 0.13716 12.322 1.3731 25.224 1.7918 35.878 0.39722-6.4416 1.9347-12.959 4.081-19.322-0.37401-1.1755-0.7652-2.3616-1.1665-3.5956-2.1295-6.5478-1.7712-21.106-0.29685-30.226 2.3257-14.384 6.9627-21.026 2.8351-38.141-2.9037-12.041-11.682-22.743-20.53-25.846-0.98174-0.34436-1.9848-0.61023-2.9562-0.7561z"/>
  <path d="m2.9387 65.284c3.6414 1.4877 7.3289 4.4934 10.442 8.2597-0.1462 0.54815-0.27539 1.0969-0.42706 1.6583-0.93911-1.2329-1.9586-2.349-3.0941-3.3099-8.6386-7.3106-13.843-6.6127-20.236-3.3496 3.1316 3.693 4.5067 9.3763 5.0029 16.173-1.0042-4.5655-4.4746-13.615-6.317-14.683-0.01594-0.008728-0.06135-0.018311-0.07705-0.025818-0.015619-0.006889-0.061769-0.020264-0.077149-0.025879-0.007541-0.002441-0.031051-0.010742-0.03856-0.012871-0.00749-0.0019-0.03112-0.011421-0.03858-0.012939-0.014641-0.002441-0.062731-0.02478-0.07705-0.025826-0.02137-6.71e-4 -0.069361 0.010315-0.090051 0.012695-0.020309 0.004395-0.07051 0.005188-0.090059 0.012695-0.0129 0.005745-0.0389 0.018555-0.05148 0.025703-0.03778 0.021355-0.08339 0.064568-0.11587 0.089775-1.2753 1.096 1.7282 5.5664 0.56267 18.417-1.203 13.265-2.6976 19.824-4.0413 34.844-1.3437 15.021-0.31936 12.705-0.14293 25.514 0.17652 12.81-0.41014 9.6618 1.8366 26.135 4.7768 35.022 0.96833 41.043 6.0156 51.038 3.2869 6.5089 14.363 14.469 26.082 23.15 1.8938 3.0643 4.0667 6.3453 6.5302 9.9511-3.8331-3.1931-7.6106-6.0472-11.304-8.5054-7.1349-4.7494-19.385-15.19-22.423-19.865-6.4679-9.9556-4.2599-25.206-9.5268-83.567-2.7453-30.419 6.064-54.296 5.3009-67.276-0.77734-13.222-2.2451-11.423 8.55-15.149 2.4214-0.83563 5.1142-0.58844 7.8438 0.52667z"/>
  <path d="m92.712 75.25c8.0579 3.2994 14.966 15.355 15.581 27.866 0.8143 16.555-4.4213 22.11-8.8772 35.197-2.8249 8.2968-3.9049 13.549-3.4649 19.941 1.0915 15.853-2.4182 50.074-2.5637 52.066-0.001587 0.004395-0.011688 0.034973-0.012909 0.038574 0.5529 2.096 19.963 46.942 21.335 48.838 5.6448 4.0463 10.227 11.305 14.359 19.866 0 0 11.92 11.885 12.942 21.278 0.20966 1.9255 0.26172 3.8007 0.1712 5.633l0.8528-2.545c1.0547-2.662 5.282-3.6912 9.1985-2.2361l28.054 12.531c0.6169 0.90649 1.2704 1.8991 1.9886 3.0252 0.60445 0.94775 1.1754 1.8981 1.7059 2.8448l-30.814-15.558c-3.2345-1.1183-8.087 0.54285-8.8904 2.5967-0.018204 0.049255-0.046249 0.13379-0.06459 0.19281-0.002594 0.009155-0.010941 0.030273-0.012924 0.038513-0.005219 0.038879-0.010117 0.12824-0.013123 0.16718-0.004669 0.044617-0.012512 0.12244-0.013138 0.16718 0.001541 0.1568 0.034698 0.34418 0.089249 0.50171 0.004562 0.012268 0.020782 0.039124 0.025635 0.051453 0.15527 0.3714 0.45232 0.78119 0.94988 1.1332l9.5021 9.1456c4.3906 5.438 8.1888 9.6355 8.335 15.316-4.2294-5.5089-9.11-10.416-15.686-10.274 8.9053 12.943 23.926 26.26 35.54 36.012-12.559-7.7982-27.815-21.857-44.512-39.19-1.3746 2.7415-3.0884 5.4125-5.1438 8.0552 4.7057-9.7488 6.9578-18.909 5.344-29.133-1.9339-5.6722-4.3542-8.6587-6.7848-11.623-0.79971 5.696-0.61273 11.85-4.115 16.249 2.4565-5.8628 1.6986-12.817 0.031464-20.062-2.6592-6.7756-6.2169-12.356-10.39-17.12 0.049911 8.2198-3.2662 13.052-7.5882 16.886 2.8516-6.8416 5.7109-13.674 2.5405-20.894-5.1024-14.889-15.727-33.146-20.931-44.156-4.4645 2.2202-9.4072 3.6003-14.886 4.3619 5.0992-1.8767 9.6911-4.0245 13.835-6.7299-1.4884-3.3889-2.2427-5.8101-1.8153-6.8701 4.1576-10.311 5.9482-39.078 4.0858-55.073-2.3257 2.0253-5.0228 2.4532-12.82-0.65021 7.1706 2.0374 9.4076-0.94934 13.315-3.0013 1.2384-6.2978 3.2496-13.605 5.3663-18.703 6.232-15.01 10.287-30.416 2.972-41.893-5.2975-8.3119-11.673-14.271-19.219-12.53 2.104 4.8976 1.8069 11.455 0.24031 18.995 0.36888-5.0815-0.43902-15.718-1.9656-17.686-0.011154-0.01123-0.053024-0.05352-0.064156-0.064392-0.013733-0.01458-0.0504-0.05114-0.064224-0.064392-0.013885-0.012512-0.045456-0.050598-0.06424-0.064392-0.008789-0.006226-0.031494-0.008118-0.038475-0.012939-0.003471-0.001099-0.034721-0.011841-0.038582-0.012939-0.011124-0.011841-0.05304-0.052917-0.06424-0.064392-0.007225-0.002625-0.031364-0.010674-0.038574-0.012878-0.00914 0.004822-0.04232 0.02063-0.051476 0.025642-0.003334-0.001228-0.034615-0.011482-0.038582-0.012939-0.003326-0.001221-0.034622-0.011299-0.038483-0.012939-0.015465 0.00177-0.074585 0.010071-0.09005 0.012749-1.9287 0.53797 0.085869 6.1212-5.1628 20.144-5.2487 14.022-10.1 18.976-15.255 34.518-5.6082 16.912-5.7517 15.689-7.2738 29.644-1.1067 10.146-1.9783 15.345-6.7053 27.947-6.3108 16.824-10.52 21.087 1.2762 47.263 4.0976 9.0928 5.4457 25.299 9.4189 37.553 2.4661 7.606 5.345 16.981 8.0559 29.334 6.6972 30.518 5.3461 32.99 13.784 42.19 7.3158 7.976 13.752 15.748 32.072 25.5-63.486-29.472-38.318-50.634-56.656-93.44-11.574-27.018-5.7244-36.067-16.391-52.842-10.441-16.42 12.254-39.974 12.745-66.068 0.52021-27.637 23.394-56.953 25.832-71.333 2.0818-12.28 1.103-14.716 13.319-14.022 1.1546 0.065605 2.3183 0.29468 3.4454 0.72558 0.09584 0.036621 0.21294 0.064209 0.30849 0.10334v-8e-6zm49.011 236.96c-0.1294-0.059753-0.29234-0.08313-0.42415-0.14215-0.24011 1.0056-0.4962 1.9985-0.82773 2.9822 3.8606 0.72333 7.8814 2.2903 12.207 6.3206-2.2779-3.5134-5.579-6.6771-10.955-9.1607zm39.966 26.644c1.6213 0.6424 3.1608 1.608 4.7546 2.3222 1.9223 1.2682 3.7127 2.7246 5.3429 4.4066-0.002213 0.004211-0.011551 0.035095-0.012924 0.038574 0.29248 2.4904 0.50563 4.9813 0.70845 7.4857-4.0686-6.1466-9.181-11.506-17.763-14.315 2.4835-0.9856 4.5415-0.78009 6.4688-0.10559 0.16972 0.059387 0.33356 0.1015 0.50128 0.16797z"/>
 </g>
 <g stroke-linecap="round" stroke-linejoin="round">
  <path d="m98.099 84.835c1.1524 1.4383 2.2538 3.0275 3.3196 4.6996 7.3152 11.478 3.2817 26.885-2.9504 41.894-2.1167 5.0978-4.138 12.404-5.3764 18.702-3.8767 2.036-6.1144 4.9987-13.153 3.0546 7.6749 3.0341 10.354 2.5921 12.663 0.58075 1.8624 15.996 0.058609 44.795-4.099 55.106-0.42741 1.0601 0.35716 3.4598 1.8455 6.8486-4.1441 2.7054-8.7586 4.8525-13.858 6.7292 5.4787-0.76166 10.447-2.1371 14.911-4.3573 5.2042 11.01 15.803 29.279 20.906 44.168 3.1704 7.2197 0.30791 14.055-2.5436 20.896 4.3219-3.8342 7.6299-8.6653 7.58-16.885 4.1729 4.7639 7.7688 10.324 10.428 17.099 1.6412 7.1318 2.412 13.967 0.091599 19.772 3.2993-4.379 3.2039-10.368 3.9883-15.955 2.4305 2.9646 4.834 5.9526 6.7679 11.625 1.6011 10.144-0.57727 19.24-5.2079 28.903 1.9839-2.5754 3.6534-5.1542 4.9925-7.8248 16.697 17.333 31.977 31.377 44.536 39.175-11.614-9.7527-26.652-23.038-35.557-35.982 6.5761-0.14197 11.451 4.7313 15.681 10.24-0.1463-5.681-3.9133-9.8602-8.304-15.298l-9.511-9.1528c-0.23323-0.16498-0.44537-0.35565-0.59654-0.53613-0.10716-0.13263-0.21672-0.3006-0.28581-0.43158-0.011246-0.017944-0.049713-0.077698-0.063507-0.095886-0.003998-0.005981-0.028442-0.042053-0.031769-0.047913 0.001251-0.004517 0.007355-0.036194 0.008102-0.039856 7.48e-4 -0.003723 0.006866-0.035339 0.008087-0.039856-0.032806-0.094727-0.078445-0.20892-0.10272-0.3114-0.00386-0.018555-0.021103-0.069458-0.023666-0.087769-9.16e-4 -0.009033 0.008606-0.030884 0.008102-0.039856 7.48e-4 -0.003418 0.00705-0.036133 0.008087-0.039856-0.001678-0.039063-0.008041-0.12854-0.007462-0.16754 0.005737-0.036194 0.025391-0.12323 0.032379-0.15936 7.93e-4 -0.004272 0.007294-0.036133 0.008102-0.039856 0.002289-0.007385 0.005096-0.03186 0.008087-0.039856 0.013947-0.033691 0.050247-0.080261 0.064148-0.11145 0.002975-0.007141 0.005814-0.033691 0.008102-0.039856 0.80338-2.0538 5.6341-3.7154 8.8687-2.597l30.826 15.558c4.8553 8.6628 6.729 17.284 7.7532 25.976-1.6236-1.6713-3.3777-3.1328-5.2904-4.3946-1.5938-0.71423-3.133-1.6929-4.7543-2.3353-0.16772-0.066467-0.33215-0.12555-0.50191-0.185-1.9272-0.67444-3.9771-0.84558-6.4606 0.13995 8.5596 2.8016 13.663 8.1396 17.726 14.266 0.01062 0.015991 0.021149 0.031921 0.031754 0.047974 0.68829 8.501 1.1425 17.116 3.327 25.907 1.2686 5.105 3.2666 9.1606 5.4496 12.394-58.028-2.0325-117.22-75.725-132.53-165.32-10.413-60.935 2.1354-113.7 29.364-141.27z" fill="url(#u)" opacity=".701" stroke-width="6.615"/>
  <g stroke-width="5">
   <path d="m189.5 209.1c4.4674 1.6695 9.1788 5.3873 13.903 12.659 15.639 24.075 18.303 39.554 33.169 79.401 14.865 39.847 36.434 21.667 28.683 77.784 8.932-7.482 9.7957-32.14 8.5078-36.159 9.7053 0.83936 8.4936 25.848 3.2719 36.187 5.313-7.76 8.6434-17.756 7.3743-27.924 3.5945 5.3491 6.2015 28.297 8.27 47.535 0.27829 2.5885 0.2453 7.2875-1.6923 13.641-32.013-14.674-62.448-47.892-81.885-92.078 5.6353-1.6296 11.039-4.6246 14.042-7.0237-3.27 2.3268-9.0716 4.5681-14.636 5.6581-0.54787-1.2666-1.0619-2.525-1.5915-3.8091 8.6191-2.2571 16.989-8.084 20.686-12.355-4.1343 4.3784-13.307 8.5254-21.739 9.7759-1.7192-4.3065-3.3294-8.6926-4.8331-13.182-4.019-12-7.0153-23.978-9.0475-35.742 5.6938-2.2027 10.744-6.0444 13.56-11.188-2.8508 4.6858-8.0406 8.009-13.811 9.768-0.7512-4.5119-1.373-8.9686-1.8416-13.404 6.2158-2.0626 12.726-3.3289 17.922-2.8328 0.022354-0.14386 0.030243-0.30243 0.04921-0.44653-0.33467-0.12274-0.69373-0.24255-1.0518-0.33814-4.5523-1.2149-10.927-0.26752-17.096 1.631-0.85509-8.8648-1.1462-17.578-0.90218-25.995 6.7609-1.3358 12.485-0.69238 14.28 3.8556 2.1737 5.5057 5.1807 11.948 4.9998 18.694 0.4686-7.4234-2.3297-14.458-4.3964-20.439-0.63216-1.8296-1.848-3.0519-3.4659-3.775-0.50848-0.22723-1.0475-0.4068-1.6333-0.53931-2.6608-0.60193-6.0611-0.27698-9.7641 0.67224 0.12552-3.3883 0.36887-6.7378 0.66844-10.031z" fill="url(#v)" opacity=".456"/>
   <g fill="#1dffff" fill-opacity=".594">
    <path d="m208.06 243.79c-0.005936 0.11041-0.017212 0.21643-0.024918 0.32696 0.01091-0.10956 0.015488-0.21753 0.024918-0.32696z" opacity=".701"/>
    <path d="m205.67 252.1c-0.030304 0.051331-0.041412 0.10034-0.07225 0.15131 0.031509-0.057922 0.04129-0.093079 0.07225-0.15131z" opacity=".701"/>
    <path d="m228.05 302.08c-0.02478 0.029236-0.030792 0.042419-0.05603 0.071594 0.018372-0.022705 0.037964-0.04895 0.05603-0.071594z" opacity=".701"/>
   </g>
   <path d="m41.126 49.275c1.3825 1.2046 2.7506 2.537 4.0955 3.9443 10.26 10.735 8.8349 27.434 4.9386 44.12-1.3233 5.667-2.1128 13.648-2.2392 20.418-3.8808 2.7928-5.6626 6.3107-13.918 5.3891 9.1102 1.9133 11.972 1.0069 14.121-1.4885 0.13506 12.13 1.3461 24.789 1.783 35.345-5.11e-4 0.006836-0.008091 0.032898-0.008102 0.039856 0.001671 0.027954 0.02198 0.059814 0.023663 0.087769 8e-5 0.006958-0.007603 0.03302-0.008102 0.039856-0.05859 0.86646-0.09531 1.728-0.11154 2.5917-0.26178 13.908-6.837 27.089-11.339 38.862-9.1846-20.735-14.223-48.586-13.008-78.957 1.0744-26.845 6.8733-51.304 15.67-70.392z" fill="url(#w)" opacity=".456"/>
   <path d="m5.2574 68.547c0.06189 0.036804 0.12088 0.082466 0.18307 0.12019 0.07257 0.043999 0.14993 0.083 0.22293 0.12829 0.09041 0.05603 0.16356 0.11822 0.25467 0.17621 0.01032 0.006592 0.02955 0.001534 0.03985 0.008118 0.0349 0.022285 0.07653 0.041565 0.11147 0.064156 0.0497 0.032097 0.09333 0.079399 0.14322 0.11206 0.04595 0.030029 0.10525 0.041733 0.15132 0.072258 0.01464 0.009712 0.01712 0.038208 0.03174 0.04792 0.02841 0.018921 0.04315 0.03698 0.07161 0.056091 0.01051 0.007019 0.02935 0.00103 0.03985 0.008049 0.03548 0.023811 0.07595 0.040039 0.11147 0.064148 0.14736 0.099983 0.28836 0.19122 0.43775 0.29645 0.09414 0.066101 0.19143 0.15594 0.28643 0.22418 0.08299 0.059753 0.17112 0.11487 0.25468 0.17621 0.03153 0.023132 0.07988 0.040771 0.11146 0.064148 0.01445 0.010681 0.01733 0.037231 0.03176 0.047974 0.02422 0.017952 0.04741 0.037971 0.071609 0.05603 0.22118 0.1648 0.45842 0.33618 0.68433 0.51251 0.053591 0.04187 0.08947 0.06958 0.14322 0.11206 0.04959 0.039009 0.093531 0.072578 0.14322 0.11213 0.021851 0.017326 0.04986 0.038628 0.0716 0.05603 0.02501 0.019951 0.046631 0.03595 0.07161 0.05603 0.04058 0.032524 0.06277 0.071098 0.10337 0.104 0.01924 0.015503 0.05249 0.040527 0.07161 0.05603 0.04399 0.035713 0.09912 0.075989 0.14321 0.11212 0.05053 0.04126 0.09251 0.070251 0.14322 0.11206 0.02227 0.018311 0.04947 0.03772 0.07161 0.056091 0.02547 0.021057 0.04617 0.034859 0.071609 0.05603 0.041301 0.034309 0.06194 0.069336 0.10336 0.104 0.01957 0.016365 0.052071 0.039612 0.071711 0.05603 0.044789 0.037666 0.098209 0.074036 0.14322 0.11212 0.035399 0.029968 0.06804 0.073608 0.10336 0.104 0.10579 0.091064 0.21429 0.17811 0.31819 0.2721 0.03463 0.031372 0.0689 0.072334 0.10337 0.104 0.10321 0.094971 0.21674 0.17438 0.31819 0.27216 0.03379 0.032532 0.06975 0.071114 0.10336 0.104 0.16802 0.16437 0.3138 0.34027 0.47698 0.51184 0.03254 0.034309 0.07089 0.069397 0.10337 0.10401 0.29184 0.31122 0.5657 0.6281 0.84248 0.95959 0.03073 0.036873 0.07278 0.066963 0.10336 0.10401 0.12224 0.14825 0.24607 0.29602 0.36552 0.44775 0.02981 0.037903 0.07369 0.065865 0.10336 0.10401 0.02967 0.038078 0.02589 0.097412 0.05542 0.13574 0.029531 0.03833 0.07398 0.06543 0.10336 0.104 0.01894-0.07019 0.02233-0.12952 0.04049-0.19928 0.1269-0.48852 0.25137-0.97876 0.37926-1.4584 0.12101 0.066101 0.22759 0.14453 0.32629 0.2323-0.15377 0.57959-0.31142 1.1666-0.47236 1.7608-3.818 14.095-9.5249 32.307-10.655 54.034-6.9e-4 0.013245-0.00739 0.026611-0.00809 0.039856-8.3e-4 0.013428-0.00736 0.026428-0.0081 0.039856-6.8e-4 0.013672-0.00741 0.026245-0.00809 0.039856-0.01202 0.23498-0.0071 0.466-0.01808 0.70178-6.1e-4 0.013306-0.00749 0.02655-0.0081 0.039856-7.5e-4 0.013489-0.00735 0.026367-0.0081 0.039856-6e-4 0.013733-0.0075 0.026184-0.0081 0.039856-0.01072 0.23596-0.00839 0.46503-0.01808 0.70178-5.2e-4 0.013367-0.00757 0.026489-0.00809 0.039856-6.7e-4 0.013611-0.00752 0.026245-0.0081 0.039856-0.0061 0.15057-0.00378 0.30371-0.00935 0.45459-0.00945 0.25324-0.02613 0.52734-0.03427 0.78149-0.01787 0.55866-0.04157 1.1274-0.05299 1.6907-0.00332 0.14026 0.00156 0.27399-0.00126 0.41467-0.00248 0.14111 8e-4 0.27338-0.00125 0.41473-0.00512 0.30487-0.01328 0.60663-0.01871 0.90918-0.01894 1.21-0.03485 2.3842-0.05864 3.5569-2.4e-4 0.012939-0.00777 0.026978-0.00811 0.039856-0.00566 0.28021-0.00466 0.59125-0.01061 0.86932-0.01368 0.58166-0.04645 1.1579-0.06107 1.7305-0.00671 0.28632 0.00453 0.54541-0.00252 0.82948-0.01509 0.56798-0.03693 1.1316-0.05298 1.6906-0.01595 0.55908-0.03616 1.1406-0.05298 1.6907-0.01683 0.55011-0.01918 1.0696-0.03679 1.6109-0.03514 1.0827-0.07551 2.166-0.11343 3.2138-0.55781 15.434-1.3817 27.149-1.6493 36.308-3.8e-4 0.012619-0.00773 0.027267-0.0081 0.039841-0.03752 1.2291-0.04308 2.4169-0.05865 3.5569-0.00168 0.14397-0.00804 0.31195-0.00935 0.45459-0.0031 0.2852-1e-3 0.54962-0.00252 0.82945-5.5e-4 0.13991-0.00116 0.27614-0.00126 0.41469-0.00105 0.41571-0.0065 0.84027-0.00376 1.2442 0.0012 0.13464-0.00283 0.28137-0.00126 0.41473 0.00547 0.53339 0.0063 1.026 0.01925 1.5393 0.00688 0.25665 0.03657 0.54596 0.04544 0.79768 0.01264 0.37761 0.01139 0.71788 0.02861 1.0848 0.0119 0.24463 0.03957 0.51787 0.05352 0.75781 0.01365 0.23993 0.0141 0.43468 0.02987 0.67003 8.5e-4 0.012527-0.00895 0.02742-0.0081 0.039871 0.01618 0.23534 0.05135 0.44727 0.06973 0.67815 0.02707 0.34631 0.05231 0.67665 0.08465 1.0131 0.0219 0.22438 0.04547 0.45801 0.06973 0.67818 0.02424 0.22009 0.05112 0.4223 0.07782 0.63823 0.1589 1.2957 0.36218 2.5366 0.61884 3.6945 0.09586 0.43236 0.18168 0.87653 0.2752 1.3008 0.00387 0.017212 0.02798 0.030838 0.03175 0.047989 0.08961 0.40637 0.16355 0.81335 0.25154 1.213 0.01313 0.059326 0.03434 0.11652 0.04731 0.17566 0.08894 0.40326 0.16365 0.81578 0.25164 1.213 0.0332 0.15008 0.08513 0.28973 0.1183 0.43903 0.01336 0.060532 0.03382 0.11517 0.04732 0.1756 0.0319 0.14372 0.0465 0.2879 0.07844 0.43089 0.0156 0.07019 0.0235 0.14546 0.03922 0.21547 0.02913 0.13049 0.05732 0.26111 0.08655 0.39105 0.03314 0.14746 0.08512 0.2923 0.1183 0.43903 0.01287 0.05719 0.03434 0.11853 0.04732 0.17558 0.01842 0.081299 0.01267 0.17427 0.03113 0.25531 0.02651 0.1169 0.06795 0.23474 0.09463 0.35121 0.02022 0.088608 0.05063 0.17505 0.07099 0.26343 0.02417 0.10533 0.03856 0.19818 0.06288 0.30327 0.02369 0.10286 0.03904 0.2007 0.06288 0.30322 0.02287 0.098648 0.03988 0.20491 0.06289 0.3033 0.07097 0.30408 0.15644 0.61572 0.2285 0.91785 0.02117 0.088806 0.04967 0.1748 0.07098 0.26341 0.02787 0.11604 0.06652 0.23543 0.09464 0.35121 0.01768 0.073181 0.02142 0.14238 0.03922 0.21544 0.03183 0.13086 0.05437 0.26051 0.08655 0.39113 0.01681 0.068542 0.0222 0.14685 0.03922 0.21545 0.0371 0.14995 0.1206 0.29735 0.15815 0.44707 0.01022 0.040848 0.00525 0.086868 0.01557 0.1277 0.03586 0.14227 0.04213 0.28876 0.07844 0.43091 0.01942 0.076355 0.05946 0.1472 0.07908 0.22351 0.00709 0.027832 0.01647 0.059998 0.02366 0.08783 0.0103 0.039917 0.00526 0.087708 0.01556 0.12762 0.0138 0.053528 0.04151 0.082275 0.05541 0.1358 0.01166 0.044983 0.00382 0.082642 0.01557 0.12762 0.01532 0.058838 0.0319 0.11682 0.04732 0.1756 0.01866 0.071289 0.06023 0.15228 0.07909 0.22357 0.00729 0.027771 0.01625 0.059998 0.02365 0.08783 0.01051 0.039856 0.00496 0.087769 0.01556 0.12762 0.02303 0.086487 0.04775 0.17694 0.07098 0.26343 0.04173 0.15552 0.06778 0.3233 0.11021 0.47882 0.00475 0.017273 0.027 0.030701 0.03176 0.047974 0.0159 0.05835 0.03121 0.11725 0.04731 0.1756 0.01232 0.044678 0.04301 0.091064 0.05542 0.13574 0.00322 0.011658-0.01132 0.028259-0.0081 0.039856 0.0503 0.18152 0.13055 0.35333 0.18182 0.53491 0.00312 0.011108-0.01122 0.028748-0.0081 0.039856 0.02498 0.088196 0.04572 0.17523 0.07097 0.26343 0.00333 0.011597-0.0114 0.028198-0.00809 0.039856 0.05439 0.18982 0.11809 0.38464 0.17372 0.57471 0.02824 0.096558 0.0823 0.17493 0.11084 0.27154 0.06264 0.21185 0.10128 0.40228 0.1656 0.61462 0.02931 0.096802 0.04142 0.1665 0.07099 0.26337 0.00519 0.01709 0.02656 0.030884 0.03176 0.047974 0.02463 0.080566 0.04606 0.18274 0.07099 0.26343 0.03651 0.11804 0.05756 0.23291 0.09463 0.3512 0.02204 0.070313 0.05684 0.15314 0.07908 0.22357 0.00893 0.028015 0.01473 0.059692 0.02366 0.087769 0.02668 0.084229 0.09197 0.14734 0.11893 0.23163 0.00378 0.011719-0.01188 0.028137-0.008101 0.039856 0.06543 0.20404 0.13822 0.41791 0.20548 0.62274 0.03352 0.10193 0.06874 0.20923 0.10273 0.31134 0.01811 0.054382 0.02911 0.12122 0.04732 0.1756 0.01531 0.045654 0.04001 0.090088 0.05541 0.1358 0.02625 0.078003 0.05257 0.14539 0.07908 0.22351 0.00965 0.028442 0.01401 0.059387 0.02366 0.08783 0.0139 0.040833 0.00157 0.086792 0.01555 0.12762 0.02169 0.063232 0.06542 0.12042 0.08719 0.18372 0.01317 0.038025 0.0024 0.0896 0.01556 0.12769 0.02196 0.063354 0.06504 0.12018 0.08717 0.18366 0.01062 0.030518 0.01304 0.057312 0.02366 0.08783 0.02614 0.074646 0.05267 0.14874 0.07908 0.22357 0.00973 0.027527 0.01393 0.060242 0.02366 0.087769 0.02659 0.07489 0.05232 0.14856 0.07908 0.22357 0.00991 0.027588 0.01375 0.060181 0.02366 0.087769 0.02694 0.075134 0.05186 0.14832 0.07907 0.22357 0.01704 0.046936 0.0384 0.088745 0.05542 0.13574 0.02203 0.060547 0.06506 0.12311 0.08717 0.18372 0.00398 0.010803-0.01197 0.029053-0.0081 0.039856 0.03412 0.09314 0.07629 0.17804 0.11084 0.27148 0.00604 0.016357 0.02571 0.031616 0.03175 0.047974 0.03228 0.087036 0.03836 0.17609 0.07099 0.26337 0.04417 0.1181 0.09779 0.20099 0.14258 0.31946 0.11974 0.31634 0.22287 0.62231 0.34806 0.9422 0.06578 0.16797 0.12265 0.32599 0.18991 0.49506 0.04457 0.11176 0.09742 0.20721 0.14259 0.31946 0.0182 0.045105 0.03713 0.090515 0.05542 0.13574 0.03518 0.086914 0.0753 0.18433 0.11083 0.27148 0.00717 0.017578 0.02458 0.030396 0.03185 0.047974 0.03561 0.08728 0.07469 0.18396 0.11083 0.27148 0.007259 0.017639 0.024409 0.030273 0.031759 0.047974 0.035891 0.086914 0.03456 0.17621 0.07098 0.26343 0.05881 0.14105 0.14607 0.27338 0.2061 0.41534 0.030089 0.071289 0.04864 0.15198 0.07908 0.22351 0.01513 0.035767 0.04819 0.06012 0.06351 0.095947 0.03053 0.071594 0.0481 0.15167 0.07907 0.22351 0.01818 0.042297 0.03706 0.093384 0.05542 0.1358 0.026731 0.06189 0.06018 0.12158 0.08718 0.18366 0.02019 0.04657 0.03504 0.089111 0.05541 0.13574 0.02707 0.062256 0.05974 0.12134 0.08717 0.18372 0.02055 0.046814 0.0347 0.088867 0.05542 0.13574 0.02751 0.062561 0.059401 0.12103 0.087171 0.18372 0.02347 0.052979 0.02368 0.12251 0.047319 0.1756 0.0436 0.097961 0.10649 0.18121 0.15068 0.2796 0.00774 0.017273 0.023939 0.03064 0.031759 0.047974 0.020411 0.045532 0.03474 0.090088 0.05542 0.13574 0.029711 0.065857 0.057111 0.11762 0.087171 0.18372 0.02336 0.051514 0.02369 0.1239 0.047319 0.1756 0.02748 0.060181 0.059441 0.12329 0.087171 0.18372 0.0211 0.046021 0.03414 0.0896 0.05542 0.13574 0.07808 0.16962 0.14987 0.33209 0.22976 0.50311 0.00782 0.016922 0.02384 0.031067 0.031759 0.047974 0.04037 0.086365 0.069941 0.18475 0.11083 0.27148 0.01529 0.032532 0.04813 0.063354 0.06351 0.095947 0.01246 0.026306 0.01112 0.06134 0.02366 0.087769 0.04213 0.088989 0.11614 0.15033 0.15878 0.23975 0.012541 0.026428 0.01103 0.06134 0.023661 0.08783 0.04356 0.091248 0.10652 0.18787 0.15069 0.27954 0.005099 0.010681-0.01328 0.029175-0.008101 0.039871 0.0515 0.10704 0.09031 0.21184 0.14259 0.31944 0.00771 0.01593 0.02405 0.032043 0.03175 0.047974 0.0487 0.10022 0.10131 0.17883 0.15069 0.2796 0.02172 0.044434 0.03352 0.091202 0.05542 0.13574 0.09612 0.1955 0.19476 0.40161 0.29328 0.59906 0.11539 0.2314 0.23806 0.46082 0.35678 0.69495 0.00867 0.01709 0.02308 0.030884 0.03176 0.047974 0.11066 0.21796 0.21148 0.42658 0.32503 0.64697 0.00892 0.017273 0.02282 0.03064 0.03175 0.047974 0.05305 0.10284 0.12871 0.22412 0.18244 0.32752 0.0086 0.016479 0.02316 0.031494 0.03176 0.047974 0.05338 0.1026 0.08861 0.21626 0.14259 0.31947 0.074671 0.14238 0.16201 0.31981 0.23785 0.46324 0.04574 0.086426 0.11263 0.15302 0.15878 0.23981 0.02262 0.04248 0.03273 0.09314 0.05542 0.13574 0.04159 0.077942 0.07702 0.15338 0.11893 0.23163 0.051661 0.096451 0.098431 0.18268 0.15068 0.2796 0.01756 0.032593 0.045879 0.063232 0.063519 0.095886 0.02487 0.046082 0.03038 0.089554 0.05542 0.13574 0.04277 0.078979 0.07582 0.1524 0.11892 0.23169 0.0587 0.10785 0.12308 0.21906 0.18245 0.32752 0.009069 0.016541 0.022679 0.031433 0.03175 0.047974 0.03123 0.056885 0.05578 0.12666 0.08717 0.18366 0.036571 0.066467 0.09031 0.1252 0.12703 0.19185 0.03609 0.065292 0.09078 0.12627 0.12702 0.19176 0.03278 0.059082 0.05423 0.12445 0.08718 0.18372 0.04103 0.073853 0.07766 0.15759 0.11892 0.23163 0.028259 0.050537 0.06695 0.093201 0.095269 0.14386 0.04463 0.079651 0.07407 0.15173 0.11894 0.23163 0.02857 0.050903 0.06661 0.092911 0.09526 0.14386 0.04741 0.084106 0.063101 0.18713 0.11084 0.27154 0.02687 0.047485 0.06831 0.096252 0.095269 0.14386 0.12377 0.21802 0.27818 0.44257 0.40473 0.66315 0.0153 0.026611 0.008369 0.061218 0.02366 0.08783 0.06308 0.1098 0.11869 0.2171 0.18244 0.32752 0.01782 0.030823 0.0457 0.065063 0.06351 0.095947 0.05953 0.10274 0.13052 0.18439 0.19064 0.28766 0.015619 0.026978 0.007939 0.060852 0.02366 0.08783 0.14613 0.25104 0.31832 0.5047 0.46824 0.75909 0.00553 0.009521-0.01372 0.030334-0.00809 0.039856 0.08236 0.13977 0.16241 0.28261 0.24595 0.42346-16.005-23.994-26.095-59.885-25.872-99.996 0.16144-29.11 5.7264-55.981 14.982-77.628v-2.3e-5z" fill="url(#x)" opacity=".456"/>
   <path d="m62.168 295.77c0.68326 2.7251 1.3851 5.6169 2.0596 8.6905 6.6973 30.518 5.354 32.973 13.792 42.172 7.0354 7.6704 13.23 15.204 29.989 24.44-5.5448-2.638-10.413-5.1671-14.638-7.7007-0.001709 0.008545-0.005585 0.028748-0.006073 0.029846 4.1191 3.2996 9.1796 7.7347 15.67 14.099 28.941 28.378 49.095 28.763 65.4 74.239 10.846 30.249 18.683 55.43 24.647 77.373 14.591 6.793 29.623 12.951 45.027 18.384l1.329-0.7252c-3.1385-43.214-20.328-92.745-51.157-139.3-37.213-56.187-86.167-95.777-132.11-111.71z" fill="#fff" opacity=".456"/>
  </g>
 </g>
</svg>
